<svg width="70" height="29" viewBox="0 0 70 29" fill="none" xmlns="http://www.w3.org/2000/svg">
<path fill-rule="evenodd" clip-rule="evenodd" d="M34.8599 0.0943165C34.3938 0.133924 33.5745 0.615129 33.5674 0.853587C33.5668 0.873595 33.5186 0.985883 33.4606 1.10287C33.4024 1.21965 33.3549 1.3499 33.3549 1.39196C33.3549 1.43401 33.3302 1.53854 33.2999 1.62409C33.2318 1.81681 33.262 2.48258 33.342 2.54893C33.3687 2.57098 33.3906 2.62508 33.3906 2.66898C33.3906 2.71287 33.4202 2.78698 33.4565 2.83353C33.4927 2.88028 33.5504 2.97848 33.585 3.05157C33.6544 3.19959 33.8787 3.43437 33.9508 3.43437C33.9761 3.43437 34.0649 3.49705 34.148 3.57361C34.247 3.66487 34.3477 3.72122 34.4408 3.73735C34.5188 3.75103 34.6513 3.78451 34.735 3.81166C34.9781 3.89088 35.5533 3.87801 35.6858 3.79023C35.7444 3.75143 35.8468 3.71938 35.9132 3.71938C36.157 3.71877 36.7805 3.17713 36.8964 2.86518C37.0536 2.44256 37.0939 1.97381 37.0167 1.46648C36.9683 1.14758 36.9822 1.18024 36.7531 0.852362C36.4924 0.47875 35.9587 0.143315 35.5649 0.105341C35.4553 0.0949289 35.3254 0.0818626 35.2764 0.0763503C35.2276 0.0710422 35.04 0.0790045 34.8599 0.0943165ZM50.7311 5.97821C50.6899 6.0072 50.6115 6.10724 50.5574 6.20033C50.5031 6.29363 50.3491 6.48799 50.215 6.63234C50.0809 6.77647 49.8977 7.00411 49.8077 7.13824C49.5989 7.44938 49.4033 7.50145 49.1599 7.31015C49.1123 7.27258 49.0525 7.24175 49.0274 7.24175C49.0021 7.24175 48.9339 7.20174 48.8757 7.15294C48.8177 7.10395 48.7404 7.06352 48.704 7.06311C48.6677 7.06271 48.5981 7.03106 48.5491 6.99268C48.5001 6.9545 48.4435 6.92286 48.4231 6.92245C48.4029 6.92204 48.3235 6.88958 48.2467 6.85038C48.1699 6.81138 48.0717 6.77933 48.0285 6.77933C47.9852 6.77933 47.9045 6.75667 47.8492 6.72911C47.6011 6.60559 47.3731 6.53046 47.1257 6.49085C46.9789 6.46737 46.8437 6.4345 46.8251 6.41797C46.8066 6.40143 46.7392 6.38775 46.6755 6.38775C46.6118 6.38775 46.523 6.37305 46.4781 6.35509C46.0559 6.18563 44.0524 6.26097 43.3195 6.4737C43.2125 6.50474 43.0923 6.53026 43.0527 6.53046C43.0129 6.53046 42.9322 6.56251 42.8734 6.6013C42.8148 6.6403 42.7264 6.67215 42.6772 6.67235C42.628 6.67235 42.528 6.70461 42.4551 6.7436C42.382 6.7828 42.2989 6.81485 42.2705 6.81485C42.2422 6.81485 42.1437 6.85487 42.0517 6.90387C41.9596 6.95266 41.861 6.99268 41.8326 6.99268C41.804 6.99268 41.7091 7.04106 41.6215 7.10027C41.5339 7.15927 41.4116 7.23134 41.3496 7.26013C41.1932 7.33281 40.5152 7.78523 40.3418 7.93263C40.154 8.09208 39.1195 9.12697 39.1195 9.15514C39.1195 9.19597 38.915 9.47445 38.7737 9.62593C38.7098 9.69453 38.6573 9.76905 38.6571 9.79171C38.6567 9.8452 38.4825 10.1886 38.4005 10.2978C38.3654 10.3446 38.3366 10.4107 38.3366 10.4448C38.3366 10.4789 38.3127 10.5267 38.2833 10.5512C38.2539 10.5755 38.2298 10.6233 38.2298 10.6574C38.2298 10.6914 38.2012 10.7576 38.1663 10.8043C38.0948 10.8999 37.9097 11.3443 37.9097 11.4207C37.9097 11.4481 37.8866 11.5158 37.8586 11.5712C37.8307 11.6267 37.7878 11.768 37.7637 11.8856C37.7396 12.003 37.7006 12.1389 37.6773 12.1879C37.6539 12.2369 37.6243 12.3958 37.6112 12.5411C37.5983 12.6865 37.5622 12.8929 37.5312 12.9999C37.4491 13.2822 37.4722 14.8528 37.5597 14.9514C37.6006 14.9974 37.6216 15.1031 37.6304 15.3067C37.6394 15.5127 37.66 15.6158 37.702 15.6625C37.7345 15.6989 37.7721 15.804 37.7857 15.8963C37.7994 15.9888 37.8329 16.0827 37.8601 16.1054C37.8874 16.128 37.9097 16.1936 37.9097 16.2511C37.9097 16.3508 38.1004 16.7954 38.1585 16.8316C38.1739 16.8409 38.1973 16.9079 38.211 16.9804C38.2245 17.0529 38.2657 17.1692 38.3027 17.2389C38.3394 17.3085 38.3776 17.4055 38.3876 17.4542C38.3976 17.5032 38.4793 17.6313 38.5691 17.739C38.6589 17.8466 38.7906 18.0228 38.8617 18.1304C39.1544 18.5743 40.1269 19.5516 40.5427 19.82C40.6309 19.877 40.753 19.9697 40.8143 20.026C40.9608 20.1612 42.3105 20.8347 42.4347 20.8347C42.4878 20.8347 42.54 20.849 42.5508 20.8664C42.5617 20.8837 42.6133 20.9088 42.6658 20.9219C42.7183 20.9352 42.7983 20.975 42.8434 21.0107C42.8934 21.0499 43.0208 21.0854 43.1666 21.1012C43.2989 21.1152 43.434 21.141 43.4669 21.1585C43.5378 21.1963 44.0639 21.2867 44.5104 21.3378C44.8746 21.3796 46.1334 21.3523 46.23 21.3006C46.2649 21.282 46.4926 21.2484 46.7361 21.2261C46.9946 21.2022 47.2014 21.1659 47.2324 21.1387C47.2618 21.1132 47.3929 21.0811 47.5238 21.0677C47.6595 21.0536 47.78 21.0211 47.8039 20.9923C47.8272 20.9644 47.8643 20.9415 47.8868 20.9415C47.9092 20.9415 47.985 20.9107 48.0554 20.8729C48.126 20.8351 48.2457 20.7925 48.3216 20.7784C48.4468 20.7549 48.7134 20.6332 48.8122 20.5544C48.8339 20.5373 48.8892 20.5115 48.9353 20.4975C48.9813 20.4834 49.0709 20.4374 49.1342 20.3952C49.1975 20.3531 49.3408 20.2627 49.4525 20.1943C49.6211 20.091 49.9776 19.8221 50.3132 19.545C50.599 19.3092 51.4302 18.4603 51.4492 18.3848C51.4618 18.3342 51.5351 18.2203 51.6123 18.1314C51.6893 18.0428 51.7801 17.9383 51.8138 17.8995C51.8777 17.8262 52.1776 17.2454 52.1782 17.1939C52.1784 17.178 52.2186 17.1125 52.2676 17.0482C52.3164 16.9841 52.3564 16.9087 52.3564 16.8806C52.3564 16.8526 52.3783 16.7981 52.405 16.7595C52.4318 16.7209 52.4661 16.6492 52.4812 16.6002C52.4963 16.5514 52.5379 16.4737 52.5739 16.4277C52.6098 16.3816 52.6492 16.2856 52.6613 16.2142C52.6731 16.1427 52.706 16.0333 52.7339 15.9708C52.8187 15.782 52.9099 15.3118 52.9536 14.839C52.9681 14.6824 52.9924 14.5348 53.0075 14.5109C53.0477 14.4484 53.0422 13.3045 53.0016 13.2283C52.9826 13.193 52.9479 12.9646 52.924 12.7206C52.8981 12.4546 52.8613 12.2545 52.8323 12.2208C52.8056 12.19 52.7737 12.062 52.7615 11.9362C52.7495 11.8104 52.7198 11.6755 52.6958 11.6365C52.6717 11.5973 52.6408 11.5058 52.6274 11.4332C52.6139 11.3607 52.5075 11.1147 52.3907 10.8864C52.274 10.6584 52.1782 10.4456 52.1776 10.4136C52.1766 10.3611 52.0257 10.1092 51.8228 9.82172C51.45 9.29336 51.4502 9.29499 51.8032 8.91199C52.0765 8.61534 52.2009 8.46794 52.3564 8.25541C52.425 8.1617 52.5567 8.01327 52.6492 7.92549C52.9959 7.59618 52.9618 7.49144 52.3762 7.08598C52.2382 6.99043 52.0692 6.861 52.0006 6.79832C51.9322 6.73585 51.7881 6.62723 51.6805 6.5572C51.5729 6.48718 51.4287 6.37101 51.3601 6.29915C51.0972 6.02353 50.8481 5.89634 50.7311 5.97821ZM60.8076 6.10397C60.6707 6.11765 60.4847 6.15358 60.3944 6.184C60.304 6.21442 60.1396 6.25056 60.0292 6.26424C59.9185 6.27812 59.8193 6.30364 59.8087 6.32079C59.7981 6.33814 59.7374 6.35223 59.6744 6.35223C59.6111 6.35223 59.4965 6.38428 59.4198 6.42348C59.343 6.46247 59.246 6.49453 59.2042 6.49453C59.1621 6.49453 59.0527 6.53454 58.9606 6.58354C58.8685 6.63254 58.7581 6.67256 58.7152 6.67276C58.627 6.67276 58.1352 6.91285 57.9919 7.02575C57.9402 7.06638 57.8788 7.09945 57.8553 7.09945C57.8318 7.09945 57.7212 7.16356 57.6093 7.24175C57.4976 7.32015 57.3982 7.38426 57.3886 7.38426C57.379 7.38426 57.3043 7.44816 57.2228 7.52656C57.1413 7.60475 57.0633 7.66886 57.0493 7.66886C57.0354 7.66886 56.9551 7.73296 56.8712 7.81116C56.7873 7.88955 56.6997 7.95345 56.6769 7.95345C56.6538 7.95345 56.5903 8.01348 56.5356 8.08698C56.4084 8.25765 56.2004 8.5004 55.9407 8.78112C55.8276 8.90321 55.7255 9.04326 55.7136 9.09226C55.7018 9.14105 55.6506 9.22578 55.5997 9.28049C55.5487 9.33521 55.4748 9.4426 55.4352 9.51895C55.1769 10.0185 55.0965 10.1933 55.0965 10.2562C55.0965 10.2954 55.0403 10.435 54.9719 10.5665C54.9033 10.6978 54.8474 10.8323 54.8474 10.865C54.8474 10.8979 54.8158 11.0208 54.7774 11.1381C54.6814 11.4309 54.5961 11.8015 54.5563 12.0989C54.5379 12.2359 54.5056 12.4521 54.4846 12.5793C54.4174 12.9882 54.4083 14.5523 54.4726 14.6764C54.5026 14.7344 54.5271 14.8639 54.5271 14.9637C54.5271 15.1719 54.5963 15.6399 54.6347 15.693C54.649 15.7126 54.672 15.8246 54.6861 15.942C54.7 16.0594 54.7402 16.2036 54.7753 16.2622C54.8104 16.321 54.8498 16.4592 54.8631 16.5694C54.878 16.694 54.9403 16.8759 55.0273 17.0492C55.1044 17.2027 55.1675 17.3558 55.1675 17.3893C55.1675 17.4228 55.1824 17.4593 55.2006 17.4706C55.2188 17.4816 55.2529 17.5506 55.2763 17.6239C55.2998 17.697 55.3435 17.785 55.3735 17.8193C55.4335 17.8879 55.4672 17.9461 55.6154 18.2372C55.6704 18.3448 55.7808 18.5049 55.8608 18.593C55.9411 18.681 56.0481 18.8172 56.0987 18.8954C56.2296 19.0975 56.7924 19.6651 56.9823 19.7866C57.0705 19.8429 57.2179 19.9577 57.31 20.0416C57.4021 20.1255 57.5009 20.1943 57.5297 20.1943C57.5582 20.1943 57.6336 20.2382 57.6971 20.2921C57.7603 20.346 57.8777 20.4244 57.9578 20.4664C58.2503 20.6206 58.5496 20.7594 58.6807 20.8021C58.7544 20.8259 58.8657 20.8674 58.9277 20.8939C58.9898 20.9205 59.0907 20.9521 59.1521 20.9644C59.2134 20.9766 59.3222 21.0166 59.3936 21.053C59.4653 21.0895 59.5696 21.1193 59.6254 21.1193C59.6813 21.1193 59.7566 21.1353 59.793 21.1548C59.8528 21.1867 60.0496 21.2241 60.7542 21.3374C61.138 21.399 62.8505 21.3641 62.9603 21.2922C63.0093 21.2604 63.1506 21.2259 63.2743 21.2155C63.398 21.2053 63.5262 21.1732 63.5591 21.1442C63.5918 21.1152 63.6826 21.0834 63.761 21.0734C64.0938 21.0307 64.8627 20.6769 65.291 20.3692C65.389 20.299 65.509 20.2206 65.558 20.1953C65.7071 20.1179 66.5758 19.2241 66.6156 19.1071C66.7554 18.6955 66.9812 18.7382 66.9812 19.1763C66.9812 19.3278 66.9976 19.482 67.0174 19.5191C67.0372 19.5561 67.0623 19.8633 67.0731 20.2016C67.0837 20.5401 67.0999 20.8529 67.1088 20.897L67.125 20.977H68.5292H69.9334L69.9526 20.897C69.9632 20.8529 69.9677 17.5743 69.9622 13.6113L69.9526 6.40572H68.5114H67.0703L67.0453 6.86814C66.9492 8.64862 66.9349 8.73294 66.772 8.47835C66.5417 8.11923 66.459 8.01266 66.1764 7.71336C66.0058 7.53227 65.8522 7.38426 65.8351 7.38426C65.7922 7.38426 65.605 7.24992 65.4253 7.09068C65.3427 7.01718 65.2518 6.95715 65.2234 6.95715C65.1953 6.95715 65.1244 6.91714 65.0662 6.86814C65.008 6.81935 64.9333 6.77933 64.9002 6.77933C64.867 6.77933 64.799 6.74728 64.7492 6.70808C64.6995 6.66888 64.6391 6.63683 64.6152 6.63683C64.5913 6.63683 64.4642 6.58089 64.3329 6.51229C64.2014 6.4439 64.0569 6.38775 64.0119 6.38775C63.9668 6.38775 63.8678 6.36142 63.7921 6.32916C63.6522 6.26954 63.1684 6.16501 62.747 6.10356C62.4867 6.06579 61.1888 6.066 60.8076 6.10397ZM33.7019 6.39061C33.6429 6.42511 33.6397 6.81935 33.6397 13.8792V21.3314L33.7197 21.351C33.7638 21.3617 34.4563 21.3659 35.2587 21.3606L36.7176 21.3506L36.7266 13.8996C36.7331 8.4218 36.7249 6.43593 36.6955 6.40041C36.6453 6.33998 33.805 6.33059 33.7019 6.39061ZM20.2484 6.41143C20.1923 6.46778 20.2223 9.07286 20.28 9.15534L20.3354 9.23456H23.8163C27.7458 9.23456 27.4891 9.21476 27.2566 9.49854C27.1858 9.5849 27.1278 9.67207 27.1278 9.69208C27.1278 9.71209 27.0639 9.80233 26.9855 9.89277C26.9073 9.98321 26.8432 10.0806 26.8432 10.1092C26.8432 10.138 26.7815 10.229 26.7062 10.3117C26.6311 10.3944 26.5275 10.5344 26.4767 10.6226C26.4257 10.7108 26.3279 10.8374 26.2593 10.9038C26.1909 10.9701 26.1252 11.0681 26.1135 11.1214C26.1019 11.1747 26.0514 11.2564 26.0016 11.3027C25.9516 11.3492 25.8534 11.4754 25.783 11.583C25.7127 11.6906 25.5941 11.8464 25.5198 11.9293C25.4453 12.012 25.3843 12.1044 25.3843 12.1347C25.3843 12.1649 25.3226 12.2571 25.2473 12.34C25.1721 12.4227 25.0666 12.5662 25.0129 12.6591C24.9592 12.7518 24.8665 12.8798 24.8069 12.9437C24.7471 13.0074 24.6703 13.1238 24.6362 13.202C24.6019 13.2804 24.5241 13.3915 24.4631 13.4488C24.4022 13.5064 24.3524 13.567 24.3524 13.5838C24.3524 13.6254 24.0952 13.9688 24.0013 14.0527C23.9594 14.0899 23.9253 14.1491 23.9253 14.184C23.9253 14.2189 23.8653 14.3194 23.7918 14.407C23.7185 14.4947 23.6185 14.6254 23.5695 14.6971C23.5205 14.7687 23.4125 14.9065 23.3294 15.0033C23.2461 15.1001 23.1781 15.2079 23.1781 15.2426C23.1781 15.2775 23.1287 15.353 23.0685 15.4104C23.008 15.468 22.9364 15.5682 22.909 15.6331C22.8817 15.6983 22.7708 15.8522 22.6628 15.9753C22.5548 16.0982 22.4664 16.2162 22.4664 16.2372C22.4664 16.2585 22.4023 16.3497 22.3241 16.4402C22.2457 16.5306 22.1818 16.6276 22.1818 16.6558C22.1818 16.6837 22.1291 16.7668 22.0648 16.8403C21.9039 17.0243 21.7547 17.2297 21.7547 17.2674C21.7547 17.2846 21.7047 17.3456 21.6434 17.4032C21.5822 17.4606 21.503 17.5722 21.4672 17.6511C21.4317 17.7299 21.3603 17.8338 21.3084 17.8822C21.2565 17.9308 21.1849 18.0263 21.1492 18.0947C21.1134 18.1633 21.003 18.3195 20.9036 18.442C20.8041 18.5643 20.7229 18.6892 20.7229 18.7192C20.7229 18.7492 20.6508 18.8509 20.5626 18.945C20.4746 19.0393 20.4025 19.1273 20.4025 19.1408C20.4025 19.1774 20.2592 19.377 20.1314 19.5181C20.0696 19.5867 20.0071 19.6827 19.9926 19.7316C19.9781 19.7806 19.904 19.8886 19.8278 19.9719L19.6892 20.1232L19.699 20.7369L19.7086 21.3506L20.9434 21.36C22.0422 21.3684 22.1832 21.3631 22.2245 21.3123C22.2498 21.2806 22.3368 21.1804 22.4174 21.0893C22.498 20.9983 22.5758 20.8837 22.5903 20.8347C22.6046 20.7857 22.6677 20.6898 22.7302 20.6212C22.7929 20.5528 22.8906 20.4246 22.9476 20.3366C23.0046 20.2486 23.1117 20.1087 23.1859 20.026C23.2598 19.9432 23.3204 19.8566 23.3204 19.8333C23.3204 19.81 23.3441 19.7655 23.3729 19.7347C23.5731 19.5193 23.7475 19.2943 23.7475 19.2513C23.7475 19.2086 23.8855 19.0291 24.1174 18.7709C24.1438 18.7415 24.1758 18.6835 24.1887 18.6418C24.2016 18.6002 24.2663 18.5104 24.3324 18.4422C24.3988 18.374 24.5021 18.2311 24.5621 18.1247C24.6221 18.0183 24.7164 17.8977 24.7718 17.8568C24.8275 17.8156 24.8908 17.7213 24.9137 17.6451C24.9394 17.5594 25.0288 17.4344 25.1517 17.3132C25.2601 17.2062 25.3487 17.0894 25.3487 17.0537C25.3487 17.018 25.4208 16.9116 25.5088 16.8175C25.5968 16.7234 25.6689 16.6354 25.6689 16.6219C25.6689 16.5853 25.8124 16.3857 25.94 16.2444C26.0018 16.176 26.0641 16.0798 26.078 16.031C26.0921 15.982 26.1633 15.8779 26.2366 15.7997C26.3097 15.7213 26.4071 15.5933 26.4526 15.5149C26.4984 15.4367 26.5968 15.3051 26.6717 15.2222C26.7464 15.1395 26.8077 15.0484 26.8077 15.0196C26.8077 14.9911 26.9034 14.8586 27.0204 14.7252C27.1376 14.5921 27.2335 14.4627 27.2339 14.4378C27.2344 14.4129 27.2966 14.3249 27.3724 14.242C27.4481 14.1593 27.5222 14.0517 27.5371 14.0027C27.552 13.9537 27.6221 13.8465 27.6929 13.7643C27.9385 13.4792 27.9818 13.4219 27.9818 13.3815C27.9818 13.3592 28.0459 13.2743 28.1241 13.1928C28.2025 13.1114 28.2666 13.0264 28.2666 13.004C28.2666 12.9599 28.3785 12.8139 28.5665 12.6126C28.6316 12.5428 28.6961 12.4346 28.7098 12.3723C28.7235 12.3102 28.7639 12.2388 28.7996 12.2139C28.8352 12.1888 28.9379 12.0587 29.0277 11.9248C29.1175 11.7908 29.2472 11.6191 29.316 11.5432C29.3846 11.467 29.4407 11.3805 29.4407 11.3509C29.4407 11.3211 29.5024 11.229 29.5777 11.1463C29.653 11.0636 29.7563 10.9238 29.8074 10.8354C29.8584 10.7472 29.956 10.6206 30.0246 10.5542C30.0932 10.4879 30.1585 10.3905 30.1702 10.3378C30.1818 10.2854 30.2545 10.1804 30.3319 10.1047C30.4092 10.0292 30.4727 9.95381 30.4727 9.93748C30.4727 9.89583 30.6085 9.70678 30.7663 9.52896C30.8396 9.44607 30.8996 9.3493 30.8996 9.31336C30.8996 9.27764 30.9564 9.19352 31.0258 9.12615C31.0952 9.05898 31.1938 8.93159 31.2449 8.84339C31.2959 8.75519 31.3992 8.61534 31.4745 8.53245C31.5497 8.44977 31.6113 8.3583 31.6113 8.32911C31.6113 8.29991 31.6826 8.196 31.7698 8.0978C31.966 7.8769 31.9727 7.83872 31.9598 7.04617L31.9494 6.40572L26.1109 6.39673C22.8996 6.39163 20.2617 6.39837 20.2484 6.41143ZM63.1451 8.87605C63.2759 8.87748 63.3917 8.89259 63.4021 8.90933C63.4125 8.92628 63.4977 8.95996 63.591 8.98446C63.6845 9.00876 63.809 9.04979 63.8678 9.07552C63.9264 9.10124 64.0226 9.1333 64.0812 9.14697C64.2422 9.18393 64.547 9.33725 64.6199 9.41789C64.6552 9.45709 64.7675 9.52835 64.869 9.57653C65.0293 9.65227 65.2085 9.80274 65.6826 10.2586C65.8461 10.416 65.9766 10.5836 66.1178 10.818C66.1887 10.9354 66.2759 11.0698 66.3116 11.1163C66.3471 11.1631 66.3763 11.2288 66.3763 11.2625C66.3763 11.2962 66.4404 11.4501 66.5186 11.6044C66.5968 11.759 66.6713 11.9415 66.684 12.0101C66.6968 12.0785 66.7273 12.1665 66.7516 12.2057C66.7759 12.2449 66.8067 12.3729 66.8202 12.4905C66.8334 12.6079 66.8671 12.7724 66.8951 12.8564C67.0284 13.2579 66.9088 14.8353 66.7117 15.2714C66.6838 15.333 66.6611 15.4098 66.6611 15.4422C66.6611 15.4745 66.6301 15.56 66.5923 15.6325C66.5545 15.7048 66.448 15.9243 66.3557 16.1199C66.2632 16.3156 66.1283 16.5478 66.0556 16.636C65.9829 16.724 65.9131 16.8293 65.9004 16.8697C65.872 16.961 65.067 17.739 65.0013 17.739C64.9886 17.739 64.8927 17.7958 64.7882 17.8652C64.6834 17.9346 64.5456 18.0149 64.4819 18.0437C64.418 18.0724 64.3419 18.1104 64.3125 18.1284C64.1834 18.207 63.9223 18.3021 63.7255 18.3423C63.6079 18.3662 63.4799 18.4038 63.4407 18.4256C63.4017 18.4477 63.1855 18.4857 62.9603 18.5104C62.7353 18.5349 62.4711 18.5675 62.3731 18.5828C62.2754 18.5982 62.0912 18.5994 61.964 18.5853C61.2546 18.5071 61.128 18.4893 61.06 18.4587C60.9626 18.4146 60.7676 18.356 60.6119 18.3242C60.5435 18.3103 60.4316 18.2688 60.3634 18.2323C60.295 18.1958 60.2211 18.1659 60.1986 18.1659C60.1762 18.1659 60.1394 18.1435 60.1166 18.1161C60.0939 18.0886 60.0318 18.0553 59.9788 18.0422C59.9257 18.029 59.8583 17.9971 59.8291 17.9718C59.7997 17.9463 59.7391 17.9142 59.6944 17.9005C59.4467 17.825 59.0206 17.4655 58.5121 16.9028C58.2616 16.6256 57.7295 15.6919 57.7295 15.5294C57.7295 15.4923 57.6997 15.3698 57.6632 15.2571C57.5954 15.0486 57.5376 14.8018 57.4815 14.4831C57.3767 13.8878 57.4915 12.4068 57.6662 12.0989C57.6885 12.0599 57.7189 11.9515 57.7338 11.8584C57.7489 11.7651 57.7846 11.6653 57.8136 11.6363C57.8424 11.6073 57.8765 11.5367 57.8892 11.4791C57.9018 11.4215 57.9351 11.3554 57.9631 11.3321C57.9913 11.3088 58.0143 11.2692 58.0143 11.2443C58.0143 11.1381 58.2487 10.7668 58.4439 10.5634C58.5598 10.4426 58.6548 10.3287 58.6548 10.3101C58.6548 10.2662 58.8612 10.051 58.9751 9.97648C59.0239 9.94442 59.166 9.82907 59.2909 9.72026C59.4916 9.54509 60.0329 9.23456 60.1374 9.23456C60.1586 9.23456 60.1943 9.21251 60.2168 9.18556C60.2391 9.15861 60.3252 9.12574 60.4079 9.11268C60.4908 9.09941 60.5914 9.06694 60.6319 9.04061C60.6723 9.01407 60.8119 8.9812 60.9422 8.96711C61.0726 8.95323 61.1976 8.91954 61.2201 8.89239C61.2484 8.85829 61.3503 8.84216 61.5504 8.83992C61.7094 8.83828 61.9195 8.82624 62.0175 8.81338C62.1153 8.80031 62.3554 8.80848 62.5512 8.83155C62.747 8.85441 63.0142 8.87442 63.1451 8.87605ZM46.3545 9.64084C46.397 9.66758 46.5275 9.70086 46.6445 9.71474C46.7612 9.72842 46.889 9.76231 46.928 9.78967C46.9672 9.81703 47.0415 9.83949 47.0934 9.83949C47.1451 9.83949 47.3243 9.90931 47.4917 9.99465C47.6589 10.08 47.8251 10.1598 47.861 10.1721C47.897 10.1843 47.968 10.2227 48.0189 10.2572C48.0699 10.2917 48.1579 10.3511 48.2146 10.3893C48.2714 10.4275 48.3847 10.5155 48.4666 10.5851C48.5487 10.6545 48.6646 10.7484 48.7246 10.7939C48.7847 10.8395 48.8337 10.8899 48.8337 10.9058C48.8337 10.9217 48.9106 11.0126 49.0045 11.1077C49.1924 11.2976 49.3641 11.5348 49.4525 11.7261C49.4839 11.7943 49.5415 11.898 49.5805 11.9566C49.6648 12.084 49.7232 12.2122 49.7234 12.2704C49.7236 12.2935 49.7536 12.3619 49.7904 12.4221C49.8271 12.4823 49.869 12.6344 49.883 12.7602C49.8973 12.8858 49.9292 13.0125 49.9539 13.0419C50.0946 13.2085 50.0643 14.8504 49.9155 15.1356C49.8884 15.1877 49.8661 15.2661 49.8659 15.3097C49.8657 15.3532 49.843 15.4494 49.8153 15.5231C49.7877 15.597 49.7546 15.7044 49.7418 15.762C49.7291 15.8193 49.6877 15.91 49.6499 15.9631C49.6119 16.0163 49.5811 16.0794 49.5811 16.1037C49.5811 16.1278 49.517 16.217 49.4386 16.302C49.3604 16.3869 49.2963 16.4833 49.2963 16.5161C49.2963 16.5492 49.2122 16.6664 49.1095 16.777C49.0068 16.8875 48.8661 17.041 48.7969 17.1182C48.545 17.3995 48.2142 17.647 47.8729 17.8095C47.7457 17.8701 47.6177 17.9342 47.5883 17.9518C47.4074 18.0608 47.0822 18.2015 47.0113 18.2015C46.9656 18.2015 46.8964 18.2235 46.8578 18.2503C46.7837 18.3017 46.6857 18.3211 46.2049 18.3791C46.0408 18.3989 45.8472 18.4328 45.7747 18.4544C45.5361 18.5261 44.068 18.3699 43.7631 18.2407C43.5684 18.158 43.4888 18.1304 43.4457 18.1304C43.3995 18.1304 43.139 18.0181 43.0337 17.9528C43.0043 17.9346 42.8744 17.8703 42.745 17.8103C42.6156 17.7501 42.4716 17.6598 42.4249 17.6096C42.3779 17.5596 42.2891 17.4922 42.227 17.4598C42.0794 17.3826 41.7089 17.0267 41.6105 16.8673C41.5676 16.7983 41.5041 16.7264 41.4688 16.7074C41.4337 16.6886 41.3947 16.6325 41.3822 16.5827C41.3698 16.5329 41.2738 16.3683 41.1691 16.217C41.0417 16.0329 40.9702 15.889 40.9527 15.782C40.9382 15.6938 40.9059 15.5978 40.8808 15.5684C40.8557 15.539 40.8239 15.4429 40.8102 15.3549C40.7965 15.2669 40.7626 15.1483 40.735 15.0915C40.7077 15.0345 40.6842 14.9065 40.6834 14.8067C40.6824 14.7071 40.6683 14.5133 40.6524 14.3763C40.6228 14.1232 40.6634 13.3325 40.7197 13.0646C40.8261 12.5599 40.9896 12.0816 41.0735 12.0297C41.0948 12.0164 41.1121 11.9766 41.1121 11.9411C41.1121 11.9056 41.1336 11.8586 41.1597 11.837C41.186 11.8151 41.2256 11.7367 41.2477 11.6624C41.2699 11.5883 41.3447 11.473 41.4137 11.406C41.4827 11.339 41.5392 11.2647 41.5392 11.2406C41.5392 11.1892 42.0794 10.6433 42.1948 10.5779C42.3659 10.4814 42.6211 10.316 42.7095 10.2449C42.7605 10.2037 42.8622 10.1504 42.9353 10.1267C43.0084 10.1029 43.0774 10.0686 43.0886 10.0504C43.0998 10.0322 43.1362 10.0173 43.1692 10.0173C43.2023 10.0171 43.3254 9.96913 43.4428 9.91053C43.5602 9.85194 43.6964 9.80355 43.7454 9.80294C43.7942 9.80212 43.8654 9.77803 43.9034 9.74925C43.9416 9.72046 44.0479 9.69719 44.1412 9.69719C44.2341 9.69719 44.355 9.67861 44.4101 9.65594C44.6766 9.54652 46.1859 9.53488 46.3545 9.64084Z" fill="#060F3E"/>
<path fill-rule="evenodd" clip-rule="evenodd" d="M8.49496 10.3813C8.47679 10.4064 8.4229 10.5469 8.37553 10.6936C8.32796 10.8404 8.26712 10.9872 8.24038 11.0199C8.21363 11.0526 8.19648 11.1167 8.20261 11.1624C8.20853 11.2081 8.17852 11.3198 8.13605 11.4105C8.09338 11.5011 8.04806 11.6173 8.0352 11.6685C8.02213 11.7198 7.99743 11.7706 7.98007 11.7814C7.96272 11.792 7.94843 11.8551 7.94843 11.9213C7.94843 11.9874 7.9321 12.0517 7.91229 12.064C7.85451 12.0995 7.99783 12.2542 8.22527 12.4021C8.50272 12.5825 8.55785 12.6993 8.40289 12.7793C8.34082 12.8116 8.26794 12.8598 8.24119 12.8865C8.21445 12.9135 8.17341 12.9353 8.14993 12.9353C8.12666 12.9353 7.9913 13.0143 7.849 13.1107C7.7067 13.2071 7.57686 13.2912 7.56032 13.2975C7.38903 13.3628 7.30369 13.7038 7.45048 13.736C7.50948 13.7489 7.574 13.7903 7.59421 13.8279C7.61422 13.8655 7.66403 13.8961 7.70487 13.8961C7.74549 13.8961 7.84288 13.9602 7.92127 14.0384C7.99947 14.1168 8.09114 14.1807 8.12503 14.1807C8.15871 14.1807 8.21547 14.2128 8.25079 14.252C8.28631 14.2912 8.33939 14.3232 8.36859 14.3232C8.39799 14.3232 8.47455 14.3632 8.53865 14.412C8.60276 14.461 8.6687 14.501 8.68504 14.501C8.70137 14.501 8.77181 14.5398 8.84183 14.5874L8.96882 14.6737L9.41164 14.4537C9.65521 14.3326 9.9002 14.1979 9.95593 14.1538C10.0119 14.1099 10.0786 14.0741 10.1044 14.0741C10.1303 14.0741 10.2428 14.01 10.3547 13.9316C10.4663 13.8534 10.5709 13.7893 10.587 13.7893C10.7044 13.7893 11.512 13.3355 11.6692 13.1811L11.8493 13.0041L11.8446 12.7244C11.8391 12.3902 11.7836 12.2838 11.5661 12.1908C11.4841 12.1554 11.393 12.0979 11.364 12.0627C11.3348 12.0274 11.2309 11.9619 11.1331 11.9172C11.0353 11.8723 10.9085 11.7867 10.8514 11.7271C10.7944 11.6675 10.7279 11.6187 10.7036 11.6187C10.6241 11.6187 10.2822 11.4288 10.1456 11.309C10.0721 11.2445 9.98309 11.1918 9.94756 11.1918C9.91224 11.1918 9.83629 11.1426 9.77872 11.0824C9.68726 10.9866 9.22443 10.7312 9.13664 10.7282C9.11929 10.7273 9.05028 10.6722 8.98372 10.605C8.91696 10.5381 8.81284 10.4727 8.75241 10.4599C8.69177 10.447 8.61664 10.4139 8.5852 10.3862C8.53927 10.346 8.52151 10.3449 8.49496 10.3813ZM6.54667 15.8028C6.4993 15.9261 6.57362 15.981 6.71183 15.9255C6.7694 15.9024 6.77512 15.8926 6.73204 15.8909C6.69917 15.8897 6.66202 15.8569 6.64956 15.8177C6.62241 15.7321 6.57627 15.7256 6.54667 15.8028ZM27.1556 18.7267C27.0631 18.8392 26.9398 19.0064 26.8816 19.0985C26.8234 19.1906 26.7228 19.3188 26.6581 19.3833C26.5935 19.4476 26.5109 19.5593 26.4743 19.631C26.438 19.7026 26.3381 19.8388 26.2522 19.9333C26.1664 20.028 26.0962 20.1185 26.0962 20.1344C26.096 20.1736 25.9268 20.398 25.7867 20.5446C25.7242 20.6101 25.663 20.7099 25.6505 20.7665C25.6381 20.8232 25.593 20.8978 25.5503 20.9323C25.4125 21.0437 25.2342 21.2971 25.2551 21.3516C25.2865 21.4335 31.2729 21.4308 31.3901 21.3488L31.4691 21.2934V19.9868C31.4691 18.8617 31.4613 18.6692 31.4138 18.601L31.3582 18.522L29.3409 18.5222L27.3236 18.5224L27.1556 18.7267ZM39.3938 23.3169C39.3411 23.4132 39.5001 24.5608 39.5853 24.6998C39.6226 24.7609 39.6532 24.857 39.6534 24.9134C39.6534 24.9697 39.6855 25.0683 39.7245 25.1325C39.7637 25.1966 39.7955 25.2864 39.7955 25.3319C39.7955 25.3777 39.8503 25.4865 39.917 25.5741C39.984 25.6616 40.0644 25.788 40.0961 25.855C40.1275 25.9219 40.1741 26.0122 40.1996 26.0555C40.2835 26.1988 40.9985 26.9197 41.0566 26.9197C41.0881 26.9197 41.182 26.9826 41.2653 27.0593C41.3488 27.1363 41.4588 27.2096 41.5103 27.2224C41.5615 27.2353 41.6399 27.2845 41.6844 27.3319C41.7287 27.3792 41.7945 27.4178 41.8306 27.4178C41.8665 27.4178 41.9237 27.4327 41.9578 27.4509C42.1936 27.5775 42.5021 27.7024 42.5784 27.7024C42.6283 27.7024 42.6885 27.7257 42.712 27.7541C42.7357 27.7825 42.8296 27.8167 42.921 27.8304C43.0123 27.8439 43.1448 27.8751 43.2154 27.8998C43.2861 27.9245 43.4541 27.9566 43.589 27.9709C43.724 27.9852 43.8983 28.0197 43.9767 28.0472C44.3207 28.1689 46.2221 28.1395 46.7166 28.0048C46.8144 27.978 46.9826 27.9454 47.0902 27.9319C47.1978 27.9186 47.329 27.8856 47.3819 27.8584C47.4348 27.8314 47.5152 27.8092 47.5604 27.8092C47.6057 27.8092 47.6986 27.7796 47.7668 27.7433C47.835 27.7069 47.9487 27.6667 48.0195 27.6536C48.2227 27.6161 49.2447 27.0789 49.5023 26.8741C49.8737 26.5789 50.2624 26.1996 50.3122 26.0834C50.3373 26.0246 50.4066 25.9303 50.466 25.8738C50.5254 25.8172 50.5836 25.7272 50.5952 25.6737C50.607 25.6202 50.6558 25.5396 50.7038 25.4946C50.7516 25.4495 50.7908 25.3764 50.7908 25.3321C50.7908 25.2878 50.8045 25.2431 50.821 25.2327C50.8616 25.2076 51.0352 24.6921 51.0754 24.4769C51.0931 24.382 51.125 24.2207 51.1464 24.1186C51.1677 24.0165 51.1805 23.7923 51.1748 23.6204L51.1646 23.3079H49.9725H48.7804L48.7776 23.5037C48.7714 23.9249 48.5775 24.5175 48.3725 24.7403C48.3411 24.7746 48.2912 24.8372 48.2616 24.8799C48.1986 24.9712 47.5716 25.4032 47.4446 25.443C47.3964 25.4581 47.3188 25.5004 47.2723 25.5367C47.2255 25.5732 47.1535 25.6032 47.112 25.6035C47.0708 25.6039 46.9407 25.6339 46.8233 25.6706C46.706 25.7072 46.5057 25.7488 46.3785 25.7633C46.2513 25.7776 46.0859 25.8137 46.011 25.8435C45.8207 25.9193 44.4792 25.8903 44.3475 25.8078C44.3001 25.778 44.1682 25.7437 44.0545 25.7313C43.941 25.7188 43.8128 25.6857 43.7699 25.6578C43.7271 25.6296 43.6199 25.5957 43.5319 25.5824C43.4439 25.5689 43.3477 25.5381 43.3183 25.5136C43.2889 25.4891 43.225 25.4569 43.176 25.442C43.127 25.4271 43.0662 25.3852 43.0405 25.3489C43.0143 25.3115 42.951 25.2827 42.8951 25.2827C42.8265 25.2827 42.7587 25.2421 42.6732 25.1494C42.6056 25.0759 42.487 24.9581 42.4094 24.8873C42.0791 24.5853 41.8594 24.2695 41.8594 24.0961C41.8594 24.0731 41.8273 23.9945 41.7883 23.9214C41.7422 23.8354 41.7171 23.7205 41.7171 23.5955C41.7171 23.2632 41.8206 23.2901 40.5411 23.2901C39.918 23.2901 39.4017 23.3022 39.3938 23.3169Z" fill="#10BFFA"/>
<path fill-rule="evenodd" clip-rule="evenodd" d="M35.0987 0.0152473C35.0497 0.0305593 34.8816 0.0544461 34.7253 0.0685332C34.5689 0.0826202 34.4168 0.115286 34.3872 0.141214C34.3578 0.166938 34.2961 0.199604 34.2502 0.213487C34.0336 0.279635 33.5648 0.699796 33.5148 0.872515C33.5005 0.921514 33.4687 0.98562 33.444 1.01481C33.4193 1.04421 33.3872 1.10832 33.3729 1.15732C33.3584 1.20611 33.3204 1.27594 33.2886 1.31228C33.2012 1.4115 33.2067 2.51131 33.2951 2.6089C33.328 2.64524 33.3549 2.69975 33.3549 2.72976C33.3549 2.75977 33.386 2.82388 33.4239 2.87206C33.4619 2.92044 33.5038 3.00272 33.5168 3.05519C33.5428 3.15809 33.837 3.47025 33.9082 3.47025C33.9319 3.47025 34.0174 3.53415 34.0981 3.61255C34.1787 3.69074 34.2714 3.75485 34.3041 3.75485C34.3367 3.75485 34.3925 3.78098 34.4276 3.81283C34.5264 3.90225 35.5919 3.93185 35.7187 3.84876C35.7677 3.81671 35.8441 3.79037 35.8886 3.79037C36.1164 3.79037 36.9134 3.13869 36.9134 2.9525C36.9134 2.91738 36.9384 2.86103 36.969 2.82714C36.9994 2.79346 37.038 2.66974 37.0547 2.55234C37.0713 2.43495 37.1035 2.30388 37.1264 2.26101C37.194 2.13484 37.0929 1.23612 36.998 1.11792C36.9759 1.09056 36.9335 1.02033 36.9034 0.961529C36.8489 0.854345 36.6003 0.584445 36.3863 0.400293C36.1695 0.213691 35.9065 0.0981364 35.6107 0.059346C35.4564 0.0391341 35.2979 0.014635 35.2587 0.00503946C35.2195 -0.00455606 35.1475 -6.46959e-05 35.0987 0.0152473ZM35.565 0.105486C35.9588 0.14346 36.4925 0.478895 36.7532 0.852507C36.9823 1.18039 36.9684 1.14772 37.0168 1.46662C37.0939 1.97396 37.0537 2.44271 36.8965 2.86532C36.7805 3.17728 36.157 3.71891 35.9133 3.71953C35.8469 3.71953 35.7444 3.75158 35.6858 3.79037C35.5533 3.87816 34.9782 3.89102 34.7351 3.81181C34.6514 3.78465 34.5189 3.75117 34.4409 3.73749C34.3478 3.72136 34.2471 3.66501 34.1481 3.57376C34.065 3.4972 33.9762 3.43452 33.9509 3.43452C33.8788 3.43452 33.6544 3.19973 33.585 3.05172C33.5505 2.97863 33.4927 2.88043 33.4566 2.83368C33.4203 2.78713 33.3907 2.71302 33.3907 2.66912C33.3907 2.62523 33.3688 2.57113 33.3421 2.54908C33.262 2.48273 33.2318 1.81696 33.3 1.62423C33.3302 1.53869 33.3549 1.43416 33.3549 1.3921C33.3549 1.35005 33.4025 1.21979 33.4607 1.10301C33.5187 0.986028 33.5669 0.87374 33.5675 0.853732C33.5701 0.767577 33.9964 0.404785 34.2551 0.268406C34.5295 0.123861 34.9643 0.0421965 35.2765 0.0764953C35.3255 0.0820077 35.4553 0.0950739 35.565 0.105486ZM50.6606 5.96998C50.6212 6.01388 50.5515 6.11391 50.506 6.19231C50.4605 6.2705 50.3161 6.4467 50.1857 6.58369C50.055 6.72068 49.9072 6.89809 49.857 6.97772C49.6189 7.35684 49.4401 7.45259 49.2608 7.29682C49.2314 7.2713 49.1673 7.23863 49.1185 7.22414C49.0695 7.20964 48.9628 7.1437 48.8811 7.07755C48.7996 7.0114 48.7065 6.9573 48.6743 6.9573C48.6422 6.9573 48.5248 6.91565 48.4134 6.86481C48.0398 6.69393 47.9981 6.67821 47.8572 6.65473C47.7799 6.64187 47.6778 6.60043 47.63 6.56307C47.5822 6.5255 47.4855 6.49406 47.4146 6.49324C47.3438 6.49222 47.2219 6.46874 47.1437 6.44077C47.0653 6.4128 46.9052 6.37932 46.7878 6.36646C46.6702 6.3538 46.5343 6.32236 46.4853 6.29705C46.2572 6.17822 44.2597 6.16148 44.0372 6.27622C44.0039 6.29337 43.8726 6.31848 43.7455 6.33196C43.6183 6.34543 43.4123 6.38769 43.2879 6.42567C43.1636 6.46364 43.0254 6.49467 42.9809 6.49467C42.9366 6.49467 42.8804 6.51835 42.8565 6.54714C42.8327 6.57593 42.7547 6.609 42.6832 6.62064C42.6118 6.63207 42.4876 6.6725 42.4072 6.71047C42.3267 6.74844 42.2288 6.77948 42.1896 6.77948C42.1504 6.77948 42.0775 6.81153 42.0277 6.85052C41.9778 6.88972 41.9029 6.92177 41.8611 6.92177C41.8192 6.92177 41.6885 6.98568 41.5707 7.06407C41.4529 7.14227 41.3188 7.21577 41.2725 7.2274C41.2263 7.23884 41.161 7.27906 41.1271 7.31642C41.0932 7.35378 41.0526 7.3844 41.0369 7.3844C41.0032 7.3844 40.4505 7.75638 40.3472 7.84887C39.9526 8.20145 39.1012 9.06198 39.0641 9.14569C39.0381 9.20449 38.9279 9.35353 38.8191 9.47704C38.7103 9.60076 38.6214 9.73183 38.6214 9.76858C38.6214 9.80533 38.6041 9.84616 38.5829 9.85923C38.5616 9.8723 38.5124 9.94926 38.4734 10.0303C38.4344 10.1114 38.3564 10.2657 38.3005 10.3733C38.2444 10.4809 38.1976 10.5958 38.1964 10.6287C38.1954 10.6616 38.1737 10.7098 38.1486 10.7355C38.0921 10.7939 37.9097 11.1659 37.9097 11.223C37.9097 11.2461 37.8697 11.3602 37.8207 11.4764C37.7717 11.5928 37.7317 11.7342 37.7317 11.7912C37.7317 11.8482 37.7091 11.9135 37.6813 11.9366C37.6507 11.9621 37.6209 12.0862 37.6058 12.2524C37.5919 12.4029 37.559 12.5684 37.5327 12.6203C37.4175 12.8463 37.4047 14.8444 37.5174 14.9802C37.5374 15.0045 37.5637 15.1506 37.5757 15.3052C37.5886 15.4691 37.6235 15.6316 37.6594 15.6951C37.6935 15.755 37.7327 15.867 37.747 15.9442C37.7611 16.0214 37.793 16.1165 37.8179 16.1557C37.8428 16.1947 37.8722 16.2962 37.8834 16.3807C37.8944 16.4654 37.9271 16.5616 37.9559 16.5943C37.9845 16.6271 38.0198 16.6939 38.0343 16.7427C38.0486 16.7917 38.0808 16.8558 38.1057 16.8852C38.1304 16.9144 38.1627 16.9946 38.1772 17.063C38.1917 17.1316 38.2335 17.2257 38.2701 17.2725C38.3068 17.319 38.3366 17.3968 38.3366 17.445C38.3366 17.4991 38.4187 17.6347 38.5502 17.7982C38.6676 17.9442 38.7637 18.0775 38.7637 18.0944C38.7637 18.1116 38.7838 18.1467 38.8083 18.1724C38.8326 18.1983 38.8977 18.2859 38.9528 18.367C39.1406 18.6436 40.2394 19.7024 40.5428 19.899C40.6506 19.9686 40.7786 20.0621 40.8276 20.1066C40.8764 20.1513 40.9726 20.213 41.041 20.2436C41.1095 20.2744 41.1896 20.3143 41.219 20.3322C41.2484 20.35 41.3123 20.3822 41.3613 20.4039C41.4103 20.4253 41.4742 20.4574 41.5036 20.4749C41.533 20.4925 41.5971 20.5245 41.6459 20.5462C41.6949 20.5676 41.759 20.6013 41.7884 20.6211C41.8176 20.6409 41.8817 20.673 41.9307 20.6924C41.9795 20.712 42.0436 20.743 42.073 20.7614C42.1906 20.8349 42.3627 20.9006 42.4976 20.9235C42.576 20.9367 42.6812 20.9798 42.7314 21.0192C42.7816 21.0588 42.8902 21.0997 42.9727 21.1099C43.0552 21.1203 43.1467 21.1489 43.1761 21.1732C43.2055 21.1975 43.3475 21.2287 43.4919 21.2422C43.6362 21.2558 43.7965 21.2848 43.8477 21.3067C43.9929 21.3681 45.2044 21.4304 45.649 21.399C46.5784 21.3334 47.0326 21.2746 47.2503 21.1917C47.3709 21.1458 47.6559 21.0839 47.747 21.0839C47.7944 21.0839 47.8419 21.0701 47.8525 21.0529C47.8883 20.9949 48.246 20.8385 48.3987 20.8142C48.4824 20.8008 48.5583 20.7777 48.5675 20.7628C48.5767 20.7479 48.7014 20.6793 48.8443 20.6105C48.9875 20.5417 49.1257 20.4598 49.1514 20.4288C49.1773 20.3978 49.2235 20.3722 49.2539 20.3722C49.2845 20.3722 49.3427 20.3426 49.3831 20.3063C49.4236 20.27 49.5256 20.1999 49.6102 20.1507C49.7692 20.0582 50.1226 19.7853 50.2984 19.6193C50.3537 19.567 50.4147 19.5191 50.4341 19.5125C50.5238 19.4821 51.4466 18.5264 51.4935 18.4152C51.5225 18.3468 51.6093 18.2186 51.6865 18.1306C51.7636 18.0424 51.8467 17.9464 51.8712 17.917C51.8957 17.8876 52.0007 17.6955 52.1046 17.4901C52.2083 17.2845 52.3308 17.0444 52.3767 16.9562C52.4227 16.8682 52.4847 16.74 52.5145 16.6716C52.5443 16.603 52.5842 16.523 52.6033 16.4936C52.6648 16.3987 52.7412 16.1943 52.7628 16.0667C52.7744 15.9981 52.8071 15.8979 52.8355 15.8436C52.8636 15.7893 52.9059 15.6133 52.9294 15.4522C52.9527 15.2911 52.9939 15.1231 53.0211 15.0788C53.0823 14.9789 53.0982 13.1925 53.0396 13.001C53.0196 12.9355 52.9847 12.7458 52.9621 12.5795C52.9394 12.4131 52.8975 12.231 52.869 12.1744C52.8404 12.1181 52.8075 11.9739 52.7957 11.8543C52.7838 11.7344 52.7542 11.6126 52.7297 11.5832C52.7054 11.5538 52.6748 11.4549 52.6617 11.3637C52.6485 11.2722 52.6156 11.1791 52.5884 11.1567C52.5613 11.134 52.529 11.0699 52.5168 11.0138C52.5043 10.9578 52.4713 10.8929 52.4433 10.8696C52.4151 10.8463 52.392 10.8092 52.3918 10.7871C52.3916 10.7651 52.352 10.6669 52.304 10.5691C52.2559 10.4711 52.2161 10.368 52.2154 10.3396C52.2142 10.2857 52.038 10.0083 51.9919 9.98785C51.9772 9.98132 51.9651 9.95702 51.9651 9.93375C51.9651 9.91047 51.9202 9.83575 51.8651 9.76756C51.5354 9.35945 51.535 9.27635 51.861 8.92152C52.1899 8.56322 52.2154 8.53382 52.3592 8.34518C52.4263 8.25698 52.5972 8.06017 52.7391 7.90766C52.881 7.75516 52.9972 7.61592 52.9972 7.59836C52.9972 7.53671 52.5935 7.13104 52.4845 7.08327C52.4239 7.05652 52.2634 6.93729 52.1279 6.81806C51.9923 6.69904 51.8675 6.60145 51.8506 6.60145C51.8104 6.60145 51.7551 6.55674 51.4715 6.29439C51.3418 6.17455 51.1981 6.06492 51.1522 6.05083C51.1062 6.03674 51.0381 5.99468 51.0009 5.95753C50.9088 5.86525 50.749 5.87117 50.6606 5.96998ZM51.0879 6.06839C51.1691 6.12351 51.2918 6.22743 51.3602 6.29929C51.4288 6.37116 51.5729 6.48732 51.6805 6.55735C51.7881 6.62738 51.9323 6.73599 52.0007 6.79846C52.0693 6.86114 52.2383 6.99058 52.3763 7.08612C52.9618 7.49159 52.9959 7.59632 52.6493 7.92563C52.5568 8.01342 52.4251 8.16184 52.3565 8.25555C52.2009 8.46808 52.0766 8.61549 51.8032 8.91213C51.4502 9.29513 51.45 9.2935 51.8228 9.82187C52.0258 10.1093 52.1766 10.3613 52.1777 10.4137C52.1783 10.4458 52.274 10.6585 52.3908 10.8866C52.5076 11.1148 52.614 11.3608 52.6274 11.4333C52.6409 11.506 52.6717 11.5974 52.6958 11.6366C52.7199 11.6756 52.7495 11.8106 52.7616 11.9364C52.7738 12.0621 52.8057 12.1901 52.8324 12.221C52.8614 12.2546 52.8981 12.4547 52.9241 12.7207C52.948 12.9647 52.9827 13.1932 53.0017 13.2285C53.0423 13.3046 53.0478 14.4485 53.0076 14.511C52.9925 14.5349 52.9682 14.6825 52.9537 14.8391C52.91 15.3119 52.8187 15.7821 52.734 15.971C52.706 16.0334 52.6732 16.1429 52.6613 16.2143C52.6493 16.2858 52.6099 16.3817 52.5739 16.4279C52.538 16.4738 52.4964 16.5516 52.4813 16.6004C52.4661 16.6494 52.4318 16.721 52.4051 16.7596C52.3784 16.7982 52.3565 16.8527 52.3565 16.8807C52.3565 16.9089 52.3165 16.9842 52.2677 17.0483C52.2187 17.1126 52.1785 17.1782 52.1783 17.1941C52.1777 17.2455 51.8778 17.8264 51.8139 17.8997C51.7802 17.9385 51.6893 18.043 51.6124 18.1316C51.5352 18.2204 51.4619 18.3343 51.4492 18.3849C51.4302 18.4605 50.5991 19.3094 50.3133 19.5452C49.9776 19.8222 49.6212 20.0911 49.4525 20.1944C49.3409 20.2628 49.1975 20.3533 49.1343 20.3953C49.071 20.4376 48.9813 20.4835 48.9354 20.4976C48.8893 20.5117 48.8339 20.5374 48.8123 20.5546C48.7135 20.6334 48.4468 20.755 48.3217 20.7785C48.2458 20.7926 48.1261 20.8353 48.0555 20.873C47.985 20.9108 47.9093 20.9416 47.8868 20.9416C47.8644 20.9416 47.8272 20.9645 47.804 20.9925C47.7801 21.0213 47.6596 21.0537 47.5238 21.0678C47.393 21.0813 47.2619 21.1133 47.2325 21.1389C47.2015 21.166 46.9947 21.2024 46.7362 21.2262C46.4926 21.2485 46.265 21.2822 46.2301 21.3008C46.1335 21.3524 44.8747 21.3798 44.5104 21.3379C44.0639 21.2869 43.5378 21.1964 43.467 21.1587C43.4341 21.1411 43.299 21.1154 43.1667 21.1013C43.0209 21.0856 42.8935 21.0501 42.8435 21.0109C42.7984 20.9751 42.7183 20.9353 42.6659 20.922C42.6134 20.909 42.5617 20.8839 42.5509 20.8665C42.5401 20.8492 42.4878 20.8349 42.4347 20.8349C42.3106 20.8349 40.9609 20.1613 40.8143 20.0262C40.7531 19.9698 40.631 19.8772 40.5428 19.8202C40.1269 19.5517 39.1545 18.5744 38.8617 18.1306C38.7907 18.023 38.659 17.8468 38.5692 17.7392C38.4794 17.6314 38.3977 17.5034 38.3877 17.4544C38.3777 17.4056 38.3395 17.3086 38.3028 17.239C38.2658 17.1694 38.2246 17.053 38.2111 16.9805C38.1974 16.9081 38.1739 16.8411 38.1586 16.8317C38.1004 16.7956 37.9097 16.3509 37.9097 16.2513C37.9097 16.1937 37.8875 16.1282 37.8601 16.1055C37.833 16.0828 37.7995 15.9889 37.7858 15.8964C37.7721 15.8042 37.7346 15.699 37.7021 15.6627C37.6601 15.6159 37.6394 15.5128 37.6305 15.3068C37.6217 15.1033 37.6006 14.9975 37.5598 14.9516C37.4722 14.853 37.4492 13.2824 37.5312 13C37.5623 12.893 37.5984 12.6866 37.6113 12.5413C37.6243 12.3959 37.6539 12.2371 37.6774 12.1881C37.7007 12.1391 37.7397 12.0031 37.7638 11.8857C37.7879 11.7681 37.8307 11.6268 37.8587 11.5713C37.8867 11.516 37.9097 11.4482 37.9097 11.4208C37.9097 11.3445 38.0949 10.9 38.1664 10.8045C38.2013 10.7577 38.2299 10.6916 38.2299 10.6575C38.2299 10.6234 38.254 10.5756 38.2834 10.5513C38.3128 10.5268 38.3366 10.4791 38.3366 10.445C38.3366 10.4109 38.3654 10.3447 38.4005 10.298C38.4826 10.1887 38.6568 9.84535 38.6572 9.79186C38.6574 9.76919 38.7099 9.69468 38.7738 9.62608C38.915 9.47459 39.1196 9.19612 39.1196 9.15529C39.1196 9.12711 40.1541 8.09223 40.3419 7.93278C40.5152 7.78537 41.1933 7.33295 41.3496 7.26027C41.4117 7.23149 41.534 7.15942 41.6216 7.10042C41.7092 7.04121 41.8041 6.99282 41.8327 6.99282C41.8611 6.99282 41.9597 6.95281 42.0517 6.90401C42.1438 6.85502 42.2422 6.815 42.2706 6.815C42.299 6.815 42.3821 6.78295 42.4552 6.74375C42.528 6.70475 42.6281 6.6725 42.6773 6.6725C42.7265 6.67229 42.8149 6.64044 42.8735 6.60145C42.9323 6.56266 43.0129 6.5306 43.0527 6.5306C43.0923 6.5304 43.2126 6.50488 43.3196 6.47385C44.0525 6.26111 46.0559 6.18578 46.4781 6.35523C46.5231 6.3732 46.6119 6.3879 46.6756 6.3879C46.7393 6.3879 46.8066 6.40158 46.8252 6.41811C46.8438 6.43465 46.9789 6.46752 47.1257 6.491C47.3732 6.5306 47.6012 6.60574 47.8493 6.72925C47.9046 6.75681 47.9852 6.77948 48.0285 6.77948C48.0718 6.77948 48.17 6.81153 48.2468 6.85052C48.3235 6.88972 48.403 6.92218 48.4232 6.92259C48.4436 6.923 48.5001 6.95465 48.5491 6.99282C48.5981 7.03121 48.6678 7.06285 48.7041 7.06326C48.7404 7.06367 48.8178 7.10409 48.8758 7.15309C48.934 7.20188 49.0022 7.2419 49.0275 7.2419C49.0526 7.2419 49.1124 7.27273 49.16 7.31029C49.4033 7.50159 49.5989 7.44953 49.8078 7.13839C49.8978 7.00426 50.081 6.77662 50.2151 6.63248C50.3492 6.48814 50.5032 6.29378 50.5575 6.20048C50.7312 5.90179 50.8127 5.88138 51.0879 6.06839ZM61.055 6.03878C60.9776 6.05246 60.8218 6.06451 60.7087 6.06573C60.5954 6.06675 60.4451 6.09186 60.3745 6.12147C60.3038 6.15087 60.1562 6.18476 60.0464 6.1968C59.9368 6.20864 59.8149 6.23804 59.7757 6.26213C59.7365 6.28622 59.6352 6.31501 59.5505 6.32604C59.4658 6.33726 59.3686 6.37177 59.3343 6.4028C59.3 6.43383 59.2302 6.45915 59.1791 6.45915C59.0699 6.45915 58.8966 6.52019 58.8662 6.5694C58.8545 6.58838 58.7604 6.61717 58.6571 6.6335C58.5536 6.64983 58.4589 6.67883 58.4464 6.69781C58.4337 6.7166 58.3696 6.75069 58.3039 6.77315C58.2382 6.7956 58.1085 6.86849 58.0162 6.93484C57.9238 7.00119 57.8115 7.06714 57.7668 7.08143C57.669 7.11246 57.2672 7.38379 57.2672 7.4189C57.2672 7.43238 57.1871 7.49526 57.0896 7.55855C56.992 7.62184 56.8919 7.70126 56.8672 7.73515C56.8425 7.76904 56.7651 7.83151 56.6953 7.87418C56.6255 7.91665 56.5269 8.00954 56.4765 8.08059C56.4258 8.15164 56.2317 8.37417 56.0449 8.57506C55.8581 8.77596 55.6951 8.98052 55.6827 9.02993C55.6704 9.07913 55.6055 9.17243 55.5385 9.23736C55.4716 9.30228 55.4167 9.38211 55.4167 9.41477C55.4167 9.44744 55.3869 9.51236 55.3505 9.55891C55.314 9.60566 55.2717 9.68386 55.2566 9.73285C55.2415 9.78185 55.1992 9.86005 55.1627 9.90659C55.1263 9.95335 55.0965 10.0195 55.0965 10.0536C55.0965 10.0877 55.0724 10.1355 55.043 10.1598C55.0139 10.1843 54.9898 10.2549 54.9898 10.3168C54.9898 10.3788 54.9565 10.4929 54.9159 10.5703C54.8142 10.7647 54.6809 11.1748 54.6525 11.38C54.6396 11.4737 54.6062 11.6052 54.5782 11.6724C54.55 11.7395 54.5271 11.8663 54.5271 11.9543C54.5271 12.0425 54.5037 12.1834 54.4751 12.2677C54.3563 12.6178 54.3295 14.5498 54.44 14.8034C54.4655 14.8622 54.4973 15.0784 54.5106 15.2838C54.5245 15.4994 54.5539 15.68 54.5798 15.7109C54.6045 15.7403 54.636 15.8683 54.6496 15.9955C54.6631 16.1227 54.6962 16.2607 54.7229 16.3021C54.7497 16.3436 54.783 16.4767 54.7966 16.5979C54.8103 16.7192 54.8413 16.8382 54.8654 16.8623C54.8895 16.8864 54.9212 16.9454 54.9357 16.9936C54.9504 17.0416 54.9908 17.1288 55.0255 17.1876C55.0604 17.2463 55.0996 17.3452 55.1127 17.4074C55.1259 17.4697 55.1596 17.5397 55.1878 17.563C55.2158 17.5865 55.2388 17.63 55.2388 17.6598C55.2388 17.6896 55.2929 17.7957 55.3593 17.8956C55.4254 17.9954 55.5061 18.1332 55.5381 18.2016C55.6378 18.4139 55.6888 18.4887 55.8399 18.6426C55.9203 18.7245 55.9861 18.8088 55.9861 18.8296C55.9861 18.8506 56.0732 18.9621 56.18 19.0775C56.2866 19.1926 56.4309 19.3568 56.5005 19.4421C56.6249 19.5942 56.6623 19.6256 57.0071 19.8712C57.1012 19.9382 57.2382 20.0464 57.3117 20.1115C57.3852 20.1767 57.4683 20.2299 57.4962 20.2299C57.5244 20.2299 57.6214 20.294 57.7118 20.3722C57.8023 20.4506 57.905 20.5145 57.9399 20.5145C57.9748 20.5145 58.0324 20.5466 58.0677 20.5858C58.1032 20.625 58.15 20.657 58.1716 20.657C58.1932 20.657 58.2708 20.6889 58.3439 20.7281C58.417 20.7673 58.4989 20.7993 58.5258 20.7993C58.5528 20.7993 58.5934 20.8216 58.6161 20.8488C58.6387 20.8761 58.7275 20.9088 58.8137 20.9218C58.8996 20.9347 59.0072 20.9741 59.0526 21.0092C59.0981 21.0445 59.2044 21.0823 59.2892 21.0933C59.3739 21.1044 59.4701 21.1368 59.5027 21.1654C59.5356 21.1942 59.6783 21.2285 59.8224 21.242C59.9656 21.2556 60.1432 21.2879 60.2171 21.314C60.5891 21.4453 62.8544 21.4641 63.0092 21.3373C63.0314 21.3191 63.1456 21.2928 63.2629 21.2787C63.3803 21.2646 63.5165 21.2328 63.5653 21.2081C63.6143 21.1834 63.7423 21.1442 63.8501 21.1211C63.9577 21.0978 64.0777 21.0656 64.1169 21.0494C64.279 20.9819 64.69 20.7942 64.7396 20.765C64.769 20.7479 64.8925 20.6824 65.014 20.6195C65.1357 20.5566 65.2623 20.4753 65.2954 20.4388C65.3284 20.4023 65.3697 20.3722 65.387 20.3722C65.5097 20.3722 66.6108 19.3102 66.6438 19.1603C66.6704 19.0391 66.8655 18.8443 66.888 18.9166C66.9031 18.965 66.9386 19.371 67.0199 20.4257C67.0444 20.7412 67.0775 20.9535 67.1101 21.0047L67.162 21.0856L68.5442 21.0813C69.9214 21.0772 69.9265 21.077 69.9667 21.0004C69.9966 20.9439 70.0047 19.0238 69.9976 13.647L69.9882 6.37013L68.5156 6.36095C67.5419 6.35482 67.0281 6.36401 66.9987 6.3883C66.9666 6.41505 66.9472 6.69577 66.928 7.41135C66.9135 7.9538 66.8886 8.4297 66.8727 8.4691C66.8537 8.51586 66.8427 8.52219 66.8408 8.48748C66.8394 8.45808 66.7825 8.36376 66.7141 8.27781C66.6459 8.19185 66.5899 8.10917 66.5899 8.09406C66.5899 8.07895 66.5058 7.9783 66.4031 7.87051C66.3004 7.76271 66.1786 7.6247 66.1326 7.56386C66.0865 7.50302 65.9385 7.38113 65.8033 7.29294C65.6684 7.20474 65.5093 7.0851 65.4499 7.02712C65.3907 6.96914 65.3137 6.92177 65.279 6.92177C65.2445 6.92177 65.1618 6.86563 65.0955 6.79724C65.0232 6.72272 64.9403 6.6727 64.8891 6.6727C64.8419 6.6727 64.7237 6.63268 64.6261 6.58369C64.5287 6.53469 64.4285 6.49467 64.4034 6.49467C64.3783 6.49467 64.317 6.46262 64.2674 6.42362C64.2176 6.38443 64.1229 6.35237 64.0569 6.35237C63.991 6.35237 63.9016 6.32767 63.8583 6.29725C63.7742 6.23845 63.4861 6.16618 62.9961 6.08145C62.6711 6.0251 61.3012 5.99489 61.055 6.03878ZM62.747 6.10371C63.1684 6.16516 63.6523 6.26969 63.7921 6.3293C63.8679 6.36156 63.9669 6.3879 64.012 6.3879C64.0569 6.3879 64.2015 6.44404 64.3329 6.51243C64.4642 6.58103 64.5914 6.63697 64.6153 6.63697C64.6392 6.63697 64.6996 6.66903 64.7492 6.70822C64.799 6.74742 64.867 6.77948 64.9003 6.77948C64.9334 6.77948 65.0081 6.81949 65.0663 6.86829C65.1245 6.91728 65.1953 6.9573 65.2235 6.9573C65.2519 6.9573 65.3427 7.01732 65.4254 7.09082C65.6051 7.25006 65.7923 7.3844 65.8352 7.3844C65.8523 7.3844 66.0058 7.53242 66.1765 7.71351C66.4591 8.01281 66.5417 8.11938 66.772 8.47849C66.935 8.73308 66.9492 8.64876 67.0454 6.86829L67.0703 6.40586H68.5115H69.9527L69.9622 13.6115C69.9678 17.5744 69.9633 20.853 69.9527 20.8971L69.9335 20.9772H68.5293H67.125L67.1089 20.8971C67.0999 20.853 67.0838 20.5403 67.0732 20.2018C67.0624 19.8635 67.0372 19.5562 67.0174 19.5193C66.9976 19.4821 66.9813 19.328 66.9813 19.1765C66.9813 18.7383 66.7555 18.6957 66.6157 19.1073C66.5759 19.2243 65.7071 20.1181 65.5581 20.1954C65.5091 20.2208 65.3891 20.2992 65.2911 20.3694C64.8627 20.6771 64.0939 21.0309 63.7611 21.0735C63.6827 21.0835 63.5918 21.1154 63.5592 21.1444C63.5263 21.1734 63.3981 21.2054 63.2744 21.2156C63.1507 21.226 63.0094 21.2605 62.9604 21.2924C62.8505 21.3643 61.138 21.3992 60.7542 21.3375C60.0497 21.2242 59.8529 21.1868 59.793 21.155C59.7567 21.1354 59.6814 21.1195 59.6254 21.1195C59.5697 21.1195 59.4654 21.0897 59.3937 21.0531C59.3222 21.0168 59.2134 20.9768 59.1522 20.9645C59.0907 20.9523 58.9899 20.9206 58.9278 20.8941C58.8657 20.8675 58.7545 20.8261 58.6808 20.8022C58.5497 20.7595 58.2504 20.6207 57.9578 20.4666C57.8778 20.4245 57.7604 20.3461 57.6971 20.2922C57.6336 20.2383 57.5583 20.1944 57.5297 20.1944C57.5009 20.1944 57.4021 20.1256 57.31 20.0417C57.218 19.9578 57.0706 19.8431 56.9824 19.7867C56.7925 19.6652 56.2296 19.0977 56.0988 18.8956C56.0481 18.8174 55.9412 18.6812 55.8609 18.5932C55.7809 18.505 55.6704 18.3449 55.6155 18.2373C55.4673 17.9462 55.4336 17.888 55.3736 17.8194C55.3436 17.7851 55.2999 17.6971 55.2764 17.624C55.2529 17.5508 55.2188 17.4817 55.2007 17.4707C55.1825 17.4595 55.1676 17.4229 55.1676 17.3895C55.1676 17.356 55.1045 17.2029 55.0273 17.0493C54.9404 16.876 54.8781 16.6941 54.8632 16.5696C54.8499 16.4593 54.8105 16.3211 54.7754 16.2623C54.7403 16.2037 54.7001 16.0596 54.6862 15.9422C54.6721 15.8248 54.649 15.7127 54.6347 15.6931C54.5963 15.64 54.5271 15.1721 54.5271 14.9638C54.5271 14.864 54.5026 14.7346 54.4726 14.6766C54.4083 14.5525 54.4175 12.9884 54.4847 12.5795C54.5057 12.4523 54.538 12.2361 54.5563 12.0991C54.5961 11.8016 54.6815 11.4311 54.7774 11.1383C54.8158 11.0209 54.8475 10.898 54.8475 10.8651C54.8475 10.8325 54.9034 10.6979 54.972 10.5666C55.0404 10.4352 55.0965 10.2955 55.0965 10.2563C55.0965 10.1934 55.177 10.0187 55.4352 9.5191C55.4749 9.44274 55.5488 9.33535 55.5998 9.28064C55.6506 9.22592 55.7019 9.1412 55.7137 9.0924C55.7256 9.04341 55.8276 8.90335 55.9407 8.78126C56.2004 8.50054 56.4085 8.2578 56.5357 8.08712C56.5904 8.01362 56.6539 7.9536 56.6769 7.9536C56.6998 7.9536 56.7874 7.8897 56.8713 7.8113C56.9552 7.73311 57.0354 7.669 57.0493 7.669C57.0634 7.669 57.1414 7.60489 57.2229 7.5267C57.3043 7.4483 57.3791 7.3844 57.3886 7.3844C57.3982 7.3844 57.4977 7.3203 57.6093 7.2419C57.7212 7.1637 57.8319 7.0996 57.8554 7.0996C57.8788 7.0996 57.9403 7.06652 57.9919 7.0259C58.1353 6.913 58.6271 6.6729 58.7153 6.6729C58.7581 6.6727 58.8686 6.63268 58.9607 6.58369C59.0528 6.53469 59.1622 6.49467 59.2042 6.49467C59.2461 6.49467 59.3431 6.46262 59.4198 6.42362C59.4966 6.38443 59.6111 6.35237 59.6744 6.35237C59.7375 6.35237 59.7981 6.33829 59.8088 6.32093C59.8194 6.30378 59.9186 6.27826 60.0293 6.26438C60.1397 6.2507 60.3041 6.21456 60.3945 6.18414C60.7054 6.07962 62.225 6.02776 62.747 6.10371ZM33.5901 6.3732C33.5783 6.40403 33.5685 9.78185 33.5685 13.8791V21.3289L33.6477 21.3845C33.7833 21.4794 36.6829 21.4667 36.7342 21.371C36.791 21.2648 36.7852 6.41628 36.7283 6.35952C36.655 6.28622 33.6185 6.29929 33.5901 6.3732ZM20.1981 6.37606C20.1241 6.40566 20.1346 9.08505 20.2089 9.19122L20.2644 9.27023H23.711C27.6234 9.27023 27.3986 9.25451 27.1813 9.51277C27.1323 9.57096 27.0923 9.63057 27.0923 9.64507C27.0923 9.65956 27.0282 9.74102 26.95 9.82595C26.8716 9.91088 26.8073 10.0087 26.8067 10.0434C26.8061 10.0781 26.7404 10.1777 26.6605 10.2649C26.5807 10.3521 26.4674 10.5085 26.4086 10.6126C26.3498 10.7167 26.271 10.8186 26.2332 10.8386C26.1955 10.8588 26.1273 10.9586 26.0817 11.0603C26.0362 11.162 25.9592 11.279 25.9107 11.3202C25.8621 11.3614 25.7728 11.4817 25.7124 11.587C25.6518 11.6926 25.5454 11.8341 25.4756 11.9014C25.4058 11.969 25.3488 12.0533 25.3488 12.0891C25.3488 12.1248 25.2888 12.2218 25.2153 12.3045C25.0575 12.4825 24.9217 12.6713 24.9217 12.7132C24.9217 12.7295 24.8588 12.8042 24.7821 12.8794C24.7053 12.9543 24.632 13.0572 24.6193 13.1078C24.6067 13.1585 24.5334 13.2681 24.4566 13.3516C24.3797 13.4349 24.3166 13.5235 24.3162 13.5484C24.316 13.5733 24.2198 13.7025 24.1026 13.8359C23.9856 13.9692 23.8897 14.1051 23.8893 14.1384C23.8891 14.1715 23.825 14.2693 23.747 14.3559C23.669 14.4424 23.6051 14.5306 23.6051 14.552C23.6051 14.5735 23.5118 14.6948 23.3974 14.8217C23.2831 14.9487 23.1794 15.0927 23.1672 15.1415C23.1547 15.1905 23.0881 15.2932 23.0195 15.3697C22.9507 15.4465 22.8844 15.5424 22.8721 15.5833C22.8597 15.6241 22.7554 15.7723 22.6402 15.9126C22.5251 16.0526 22.431 16.1839 22.431 16.2039C22.431 16.2239 22.3668 16.3144 22.2887 16.4048C22.2103 16.4952 22.1461 16.5926 22.1461 16.6212C22.1461 16.6498 22.0853 16.7408 22.0108 16.8235C21.9363 16.9064 21.8179 17.0622 21.7474 17.1698C21.6772 17.2774 21.5788 17.4036 21.529 17.4501C21.479 17.4964 21.4287 17.5781 21.4171 17.6312C21.4055 17.6843 21.3326 17.7896 21.255 17.8652C21.1776 17.9407 21.1143 18.016 21.1143 18.0324C21.1143 18.0742 20.9786 18.2633 20.8207 18.4411C20.7474 18.5238 20.6872 18.6163 20.6872 18.6465C20.6872 18.6767 20.6272 18.7692 20.5539 18.8519C20.4045 19.0203 20.2603 19.2181 20.2603 19.2549C20.2603 19.2681 20.1962 19.3486 20.118 19.4335C20.0396 19.5184 19.9757 19.6126 19.9757 19.6428C19.9757 19.673 19.9075 19.7716 19.8244 19.8618L19.6732 20.0258L19.6621 20.6597C19.6466 21.5357 19.4923 21.4398 20.9181 21.4398C22.2276 21.4398 22.2299 21.4394 22.3811 21.2211C22.4334 21.1456 22.4906 21.0839 22.5081 21.0839C22.5257 21.0839 22.5698 21.0151 22.6057 20.931C22.6418 20.8469 22.7378 20.7013 22.8189 20.6074C22.9001 20.5137 22.9975 20.3763 23.0353 20.3024C23.073 20.2283 23.1506 20.1283 23.208 20.0801C23.2651 20.0321 23.3239 19.9539 23.3384 19.9068C23.3531 19.8594 23.3866 19.7967 23.413 19.7673C23.6449 19.5091 23.7831 19.3296 23.7831 19.2869C23.7831 19.2439 23.9575 19.0189 24.1577 18.8037C24.1865 18.7726 24.21 18.7281 24.21 18.7051C24.21 18.6818 24.2706 18.595 24.3447 18.5123C24.4187 18.4295 24.5262 18.2898 24.5836 18.2016C24.6412 18.1136 24.7488 17.9738 24.8227 17.8911C24.8968 17.8084 24.9572 17.7137 24.9572 17.6806C24.9572 17.6477 25.0534 17.5205 25.1708 17.3982C25.2882 17.276 25.3843 17.1457 25.3843 17.1087C25.3843 17.0716 25.4415 16.9862 25.5111 16.9187C25.5809 16.8513 25.684 16.7157 25.7404 16.6175C25.7967 16.5191 25.8857 16.3991 25.9382 16.3505C25.9905 16.3021 26.0617 16.1984 26.0962 16.12C26.1309 16.0418 26.2065 15.9297 26.2643 15.8709C26.3218 15.8123 26.4153 15.6843 26.4721 15.5869C26.5289 15.4893 26.6273 15.3638 26.691 15.3078C26.7567 15.2501 26.8226 15.1468 26.8437 15.069C26.8657 14.9867 26.9212 14.9028 26.9817 14.8595C27.0374 14.8199 27.1025 14.7403 27.1264 14.6825C27.1505 14.6245 27.1926 14.5686 27.2201 14.558C27.2477 14.5476 27.2702 14.5139 27.2702 14.4835C27.2702 14.453 27.3322 14.3605 27.408 14.2779C27.4837 14.1952 27.5578 14.0874 27.5727 14.0384C27.5874 13.9896 27.6656 13.8757 27.7463 13.7856C27.9396 13.5698 28.0176 13.4633 28.0176 13.4151C28.0176 13.3934 28.0676 13.3287 28.1286 13.2711C28.1897 13.2136 28.2605 13.1186 28.2859 13.0598C28.3112 13.0013 28.4212 12.8545 28.5304 12.734C28.6399 12.6136 28.7291 12.489 28.7291 12.4574C28.7291 12.4259 28.7899 12.3322 28.8642 12.2495C28.9383 12.1668 29.0165 12.0584 29.038 12.0086C29.0592 11.9588 29.1564 11.8308 29.2538 11.724C29.3512 11.6173 29.4428 11.4899 29.4575 11.4409C29.4722 11.3919 29.5365 11.2959 29.6006 11.2273C29.6647 11.1589 29.7372 11.0638 29.7617 11.016C29.8142 10.9139 29.8187 10.908 30.0233 10.6695C30.1102 10.5683 30.1921 10.4364 30.2052 10.3764C30.2184 10.3165 30.2742 10.2312 30.3293 10.1869C30.3846 10.1426 30.4818 10.0207 30.5453 9.91619C30.609 9.81146 30.7084 9.67528 30.766 9.61362C30.8238 9.55197 30.8995 9.43744 30.9344 9.35924C30.9693 9.28084 31.0408 9.17713 31.0933 9.12875C31.1455 9.08015 31.2345 8.96011 31.2909 8.86191C31.3472 8.7635 31.4505 8.62794 31.5202 8.56057C31.59 8.49299 31.6469 8.40867 31.6469 8.37294C31.6469 8.33722 31.709 8.24024 31.7845 8.15756C32.0318 7.88725 32.0385 7.85907 32.0385 7.08735C32.0385 6.48936 32.0308 6.39259 31.9822 6.37401C31.9148 6.34809 20.2622 6.35013 20.1981 6.37606ZM36.6956 6.40055C36.725 6.43608 36.7332 8.42194 36.7266 13.8998L36.7177 21.3508L35.2587 21.3608C34.4564 21.3661 33.7639 21.3618 33.7198 21.3512L33.6397 21.3316V13.8793C33.6397 6.81949 33.643 6.42526 33.702 6.39076C33.8051 6.33073 36.6454 6.34012 36.6956 6.40055ZM31.9599 7.04631C31.9728 7.83886 31.966 7.87704 31.7698 8.09794C31.6827 8.19614 31.6114 8.30006 31.6114 8.32925C31.6114 8.35845 31.5498 8.44991 31.4746 8.5326C31.3993 8.61549 31.296 8.75534 31.2449 8.84353C31.1939 8.93173 31.0953 9.05913 31.0259 9.12629C30.9565 9.19367 30.8997 9.27778 30.8997 9.31351C30.8997 9.34944 30.8397 9.44621 30.7664 9.5291C30.6086 9.70693 30.4728 9.89598 30.4728 9.93763C30.4728 9.95396 30.4093 10.0293 30.3319 10.1048C30.2546 10.1806 30.1819 10.2855 30.1702 10.338C30.1586 10.3907 30.0933 10.488 30.0247 10.5544C29.9561 10.6207 29.8585 10.7473 29.8075 10.8355C29.7564 10.9239 29.6531 11.0638 29.5778 11.1465C29.5024 11.2291 29.4408 11.3212 29.4408 11.351C29.4408 11.3806 29.3846 11.4672 29.316 11.5433C29.2472 11.6193 29.1176 11.791 29.0278 11.9249C28.9379 12.0588 28.8352 12.1889 28.7997 12.214C28.764 12.2389 28.7236 12.3104 28.7099 12.3724C28.6962 12.4347 28.6317 12.5429 28.5666 12.6127C28.3785 12.814 28.2667 12.96 28.2667 13.0041C28.2667 13.0266 28.2026 13.1115 28.1242 13.193C28.046 13.2744 27.9819 13.3593 27.9819 13.3816C27.9819 13.422 27.9386 13.4794 27.693 13.7644C27.6221 13.8467 27.5521 13.9539 27.5372 14.0029C27.5223 14.0519 27.4482 14.1595 27.3724 14.2421C27.2967 14.325 27.2344 14.413 27.234 14.4379C27.2336 14.4628 27.1377 14.5923 27.0205 14.7254C26.9035 14.8587 26.8077 14.9912 26.8077 15.0198C26.8077 15.0486 26.7465 15.1396 26.6718 15.2223C26.5968 15.3052 26.4984 15.4369 26.4527 15.5151C26.4072 15.5935 26.3098 15.7215 26.2367 15.7999C26.1634 15.8781 26.0921 15.9822 26.0781 16.0312C26.0642 16.08 26.0019 16.1761 25.9401 16.2445C25.8125 16.3858 25.6689 16.5855 25.6689 16.622C25.6689 16.6355 25.5969 16.7235 25.5089 16.8176C25.4209 16.9117 25.3488 17.0181 25.3488 17.0538C25.3488 17.0896 25.2602 17.2063 25.1518 17.3133C25.0289 17.4346 24.9395 17.5595 24.9137 17.6453C24.8909 17.7214 24.8276 17.8158 24.7718 17.857C24.7165 17.8978 24.6222 18.0185 24.5622 18.1248C24.5022 18.2312 24.3988 18.3741 24.3325 18.4423C24.2663 18.5105 24.2016 18.6003 24.1888 18.642C24.1759 18.6836 24.1439 18.7416 24.1175 18.771C23.8856 19.0293 23.7476 19.2087 23.7476 19.2514C23.7476 19.2945 23.5732 19.5195 23.3729 19.7349C23.3442 19.7657 23.3205 19.8102 23.3205 19.8335C23.3205 19.8567 23.2598 19.9433 23.1859 20.0262C23.1118 20.1089 23.0046 20.2487 22.9477 20.3367C22.8907 20.4247 22.7929 20.5529 22.7302 20.6213C22.6678 20.6899 22.6047 20.7859 22.5904 20.8349C22.5759 20.8839 22.4981 20.9984 22.4175 21.0895C22.3368 21.1805 22.2499 21.2808 22.2245 21.3124C22.1833 21.3632 22.0422 21.3685 20.9434 21.3602L19.7087 21.3508L19.6991 20.7371L19.6893 20.1234L19.8279 19.9721C19.9041 19.8888 19.9782 19.7808 19.9927 19.7318C20.0072 19.6828 20.0696 19.5868 20.1315 19.5182C20.2593 19.3772 20.4026 19.1775 20.4026 19.141C20.4026 19.1275 20.4747 19.0395 20.5627 18.9452C20.6509 18.851 20.7229 18.7494 20.7229 18.7194C20.7229 18.6894 20.8042 18.5644 20.9036 18.4421C21.0031 18.3196 21.1135 18.1634 21.1492 18.0948C21.185 18.0264 21.2566 17.9309 21.3085 17.8823C21.3603 17.8339 21.4318 17.73 21.4673 17.6512C21.503 17.5724 21.5823 17.4607 21.6435 17.4033C21.7048 17.3458 21.7548 17.2847 21.7548 17.2676C21.7548 17.2298 21.904 17.0244 22.0649 16.8405C22.1292 16.767 22.1819 16.6839 22.1819 16.6559C22.1819 16.6277 22.2458 16.5308 22.3242 16.4403C22.4024 16.3499 22.4665 16.2586 22.4665 16.2374C22.4665 16.2164 22.5549 16.0984 22.6629 15.9755C22.7709 15.8523 22.8817 15.6984 22.9091 15.6333C22.9364 15.5684 23.0081 15.4681 23.0685 15.4105C23.1288 15.3532 23.1782 15.2776 23.1782 15.2427C23.1782 15.208 23.2462 15.1002 23.3295 15.0034C23.4125 14.9067 23.5205 14.7689 23.5695 14.6972C23.6185 14.6255 23.7186 14.4949 23.7919 14.4071C23.8654 14.3195 23.9254 14.2191 23.9254 14.1842C23.9254 14.1492 23.9595 14.09 24.0013 14.0529C24.0953 13.969 24.3525 13.6256 24.3525 13.5839C24.3525 13.5672 24.4023 13.5065 24.4632 13.449C24.5242 13.3916 24.602 13.2805 24.6363 13.2021C24.6704 13.124 24.7471 13.0076 24.807 12.9439C24.8666 12.88 24.9593 12.752 25.013 12.6593C25.0667 12.5664 25.1722 12.4229 25.2473 12.3402C25.3227 12.2573 25.3843 12.165 25.3843 12.1348C25.3843 12.1046 25.4454 12.0121 25.5199 11.9294C25.5942 11.8465 25.7128 11.6907 25.7831 11.5832C25.8535 11.4756 25.9517 11.3494 26.0017 11.3028C26.0515 11.2565 26.102 11.1748 26.1136 11.1215C26.1252 11.0683 26.191 10.9703 26.2594 10.9039C26.328 10.8376 26.4257 10.711 26.4768 10.6228C26.5276 10.5346 26.6311 10.3945 26.7063 10.3119C26.7816 10.2292 26.8433 10.1381 26.8433 10.1093C26.8433 10.0807 26.9074 9.98336 26.9856 9.89292C27.064 9.80247 27.1279 9.71223 27.1279 9.69223C27.1279 9.67222 27.1858 9.58504 27.2567 9.49868C27.4892 9.2149 27.7458 9.2347 23.8164 9.2347H20.3355L20.2801 9.15549C20.2223 9.07301 20.1923 6.46793 20.2485 6.41158C20.2617 6.39851 22.8997 6.39178 26.1109 6.39688L31.9495 6.40586L31.9599 7.04631ZM1.84917 6.58369C1.7965 6.63268 1.74056 6.6727 1.72505 6.6727C1.55825 6.6727 1.49496 12.2397 1.6591 12.4719C1.6934 12.5203 1.72137 12.5956 1.72137 12.6395C1.72137 12.7232 2.05844 13.0776 2.13827 13.0776C2.16195 13.0776 2.23626 13.1258 2.30302 13.1844C2.36999 13.2432 2.45614 13.2912 2.49452 13.2912C2.53291 13.2912 2.59436 13.3244 2.63131 13.3653C2.66806 13.4059 2.8271 13.5006 2.98451 13.5758C3.14192 13.6509 3.30096 13.7456 3.3377 13.7862C3.37445 13.8269 3.54227 13.9302 3.7105 14.0155C3.87873 14.1011 4.06451 14.197 4.12331 14.2291C4.18191 14.2609 4.25397 14.2866 4.28337 14.2858C4.31277 14.2852 4.28603 14.2628 4.22396 14.2358C4.1621 14.2087 4.07799 14.1533 4.03716 14.1125C3.99653 14.0719 3.93916 14.0384 3.90976 14.0384C3.82116 14.0384 3.84872 13.9177 4.00061 13.6421C4.07983 13.498 4.16986 13.3242 4.20028 13.2558C4.2309 13.1876 4.29093 13.0901 4.3338 13.039C4.37667 12.9882 4.47222 12.8238 4.54633 12.674C4.70578 12.3512 4.80847 12.3159 5.03203 12.507C5.20618 12.6558 5.27314 12.6411 5.10655 12.4906C5.0306 12.422 4.95751 12.3659 4.94404 12.3659C4.88422 12.3659 4.46303 12.1424 4.40771 12.0811C4.37402 12.0439 4.21621 11.948 4.05696 11.8678C3.57576 11.6254 3.60209 11.6993 3.61455 10.6214C3.62026 10.1163 3.63782 9.69018 3.65354 9.67446C3.68743 9.64078 3.95427 9.77654 4.13209 9.91782C4.2011 9.97274 4.28133 10.0175 4.31032 10.0175C4.33911 10.0175 4.41996 10.0675 4.48958 10.1287C4.55919 10.1898 4.66536 10.2612 4.72558 10.2874C4.78561 10.3133 4.88299 10.3674 4.94159 10.4072C5.00038 10.447 5.07327 10.4797 5.10369 10.4799C5.13411 10.4801 5.21332 10.5362 5.27967 10.6046C5.34603 10.6732 5.42932 10.7292 5.46444 10.7292C5.49976 10.7292 5.58857 10.7826 5.66207 10.8482C5.73556 10.9135 5.9238 11.0274 6.08039 11.1013C6.23698 11.175 6.41297 11.28 6.47176 11.3343C6.53036 11.3886 6.61856 11.4449 6.66735 11.4594C6.71635 11.4741 6.80904 11.5319 6.87335 11.5881C6.93766 11.644 7.01238 11.6899 7.03953 11.6899C7.06669 11.6899 7.13426 11.7277 7.18959 11.774C7.24492 11.8202 7.33026 11.8704 7.37905 11.8855C7.42805 11.9006 7.52298 11.9609 7.58995 12.0194C7.69815 12.1138 7.90293 12.2236 7.97071 12.2236C7.98398 12.2236 7.96744 12.1932 7.93375 12.156C7.89374 12.1117 7.88578 12.0803 7.91048 12.065C7.9313 12.0521 7.94845 11.9874 7.94845 11.9212C7.94845 11.8551 7.96275 11.792 7.9801 11.7814C7.99745 11.7706 8.02215 11.7197 8.03522 11.6685C8.04808 11.6173 8.09341 11.5011 8.13608 11.4104C8.17854 11.3198 8.20855 11.2081 8.20263 11.1624C8.19651 11.1167 8.21366 11.0525 8.2404 11.0199C8.26715 10.9872 8.32799 10.8404 8.37556 10.6936C8.48886 10.3433 8.50765 10.319 8.60299 10.3986C8.64423 10.4329 8.62994 10.4082 8.57114 10.3433C8.51234 10.2786 8.34432 10.1677 8.19773 10.0971C8.05115 10.0264 7.88108 9.91558 7.82004 9.85065C7.75879 9.78594 7.6806 9.73285 7.64609 9.73285C7.61159 9.73285 7.52135 9.67671 7.44561 9.60832C7.36986 9.53972 7.28493 9.48378 7.25717 9.48378C7.2294 9.48378 7.16142 9.4458 7.10609 9.39966C7.05076 9.35332 6.96542 9.3033 6.91643 9.28819C6.86763 9.27329 6.75983 9.19898 6.67715 9.12323C6.59446 9.04749 6.503 8.98563 6.47381 8.98563C6.44482 8.98563 6.28965 8.896 6.12898 8.78678C5.96831 8.67735 5.79559 8.5722 5.74516 8.55322C5.69453 8.53423 5.60531 8.47237 5.54651 8.41602C5.48792 8.35947 5.39155 8.2923 5.33255 8.26698C5.27355 8.24147 5.08756 8.12836 4.91933 8.01587C4.7511 7.90338 4.59308 7.8113 4.56797 7.8113C4.54307 7.8113 4.45303 7.74719 4.3681 7.669C4.28317 7.59081 4.19313 7.5267 4.16782 7.5267C4.14271 7.5267 4.06308 7.48669 3.99102 7.43769C3.91895 7.38869 3.84137 7.34867 3.8185 7.34867C3.79564 7.34867 3.71969 7.29865 3.65007 7.23761C3.58045 7.17636 3.46653 7.10246 3.39691 7.07347C3.32729 7.04448 3.25032 6.9918 3.22562 6.95669C3.20092 6.92157 3.02901 6.81847 2.84364 6.72762C2.65806 6.63677 2.49677 6.54714 2.48534 6.52856C2.43552 6.44792 1.95023 6.48998 1.84917 6.58369ZM62.0176 8.81352C61.9196 8.82638 61.7095 8.83843 61.5504 8.84006C61.3504 8.84231 61.2485 8.85844 61.2201 8.89253C61.1977 8.91969 61.0727 8.95337 60.9423 8.96725C60.812 8.98134 60.6724 9.01421 60.6319 9.04075C60.5915 9.06709 60.4909 9.09955 60.408 9.11282C60.3253 9.12589 60.2391 9.15876 60.2169 9.18571C60.1944 9.21265 60.1587 9.2347 60.1375 9.2347C60.0329 9.2347 59.4917 9.54523 59.291 9.7204C59.1661 9.82922 59.024 9.94457 58.9752 9.97662C58.8613 10.0511 58.6548 10.2663 58.6548 10.3102C58.6548 10.3288 58.5599 10.4427 58.444 10.5636C58.2488 10.7669 58.0144 11.1383 58.0144 11.2445C58.0144 11.2694 57.9913 11.309 57.9632 11.3322C57.9352 11.3555 57.9019 11.4217 57.8892 11.4792C57.8766 11.5368 57.8425 11.6075 57.8137 11.6364C57.7847 11.6654 57.749 11.7653 57.7339 11.8586C57.719 11.9517 57.6886 12.0601 57.6663 12.0991C57.4915 12.4069 57.3768 13.8879 57.4815 14.4832C57.5377 14.8019 57.5955 15.0488 57.6632 15.2572C57.6998 15.3699 57.7296 15.4924 57.7296 15.5296C57.7296 15.6921 58.2616 16.6257 58.5121 16.903C59.0207 17.4656 59.4468 17.8251 59.6944 17.9007C59.7391 17.9144 59.7998 17.9464 59.8292 17.9719C59.8584 17.9972 59.9257 18.0291 59.9788 18.0424C60.0319 18.0554 60.094 18.0887 60.1166 18.1163C60.1395 18.1436 60.1763 18.1661 60.1987 18.1661C60.2212 18.1661 60.2951 18.1959 60.3635 18.2324C60.4316 18.269 60.5435 18.3104 60.6119 18.3243C60.7677 18.3562 60.9627 18.4148 61.0601 18.4589C61.128 18.4895 61.2546 18.5072 61.9641 18.5854C62.0913 18.5995 62.2754 18.5983 62.3732 18.583C62.4712 18.5677 62.7354 18.535 62.9604 18.5105C63.1856 18.4858 63.4018 18.4478 63.4408 18.4258C63.48 18.4039 63.608 18.3664 63.7256 18.3425C63.9224 18.3023 64.1835 18.2071 64.3125 18.1285C64.3419 18.1106 64.4181 18.0726 64.482 18.0438C64.5457 18.015 64.6835 17.9348 64.7882 17.8654C64.8927 17.7959 64.9887 17.7392 65.0014 17.7392C65.0671 17.7392 65.8721 16.9611 65.9005 16.8699C65.9131 16.8295 65.983 16.7241 66.0556 16.6361C66.1283 16.5479 66.2633 16.3158 66.3558 16.12C66.448 15.9244 66.5546 15.7049 66.5924 15.6327C66.6301 15.5602 66.6612 15.4746 66.6612 15.4424C66.6612 15.4099 66.6838 15.3332 66.7118 15.2715C66.9088 14.8354 67.0285 13.2581 66.8951 12.8565C66.8672 12.7726 66.8335 12.608 66.8202 12.4906C66.8067 12.3731 66.7759 12.245 66.7516 12.2058C66.7273 12.1666 66.6969 12.0787 66.6841 12.0103C66.6714 11.9417 66.5969 11.7591 66.5187 11.6046C66.4405 11.4502 66.3764 11.2963 66.3764 11.2626C66.3764 11.2289 66.3472 11.1632 66.3117 11.1164C66.2759 11.0699 66.1888 10.9356 66.1179 10.8182C65.9766 10.5838 65.8462 10.4162 65.6826 10.2588C65.2086 9.80288 65.0293 9.65242 64.8691 9.57667C64.7676 9.52849 64.6553 9.45724 64.62 9.41804C64.5471 9.3374 64.2423 9.18407 64.0812 9.14712C64.0226 9.13344 63.9265 9.10139 63.8679 9.07566C63.8091 9.04994 63.6845 9.0089 63.591 8.98461C63.4977 8.96011 63.4126 8.92642 63.4022 8.90948C63.3918 8.89274 63.276 8.87763 63.1451 8.8762C63.0143 8.87457 62.747 8.85456 62.5512 8.83169C62.3554 8.80862 62.1154 8.80046 62.0176 8.81352ZM62.8246 8.91928C62.8577 8.93622 62.9926 8.9499 63.1247 8.9499C63.2862 8.9499 63.4124 8.97215 63.5096 9.01768C63.5892 9.05484 63.7127 9.09526 63.7842 9.10751C63.8556 9.11976 63.9542 9.16141 64.0032 9.2C64.0524 9.23858 64.1241 9.27023 64.1627 9.27023C64.2731 9.27023 64.4975 9.37578 64.6251 9.48786C64.6894 9.54441 64.7607 9.59055 64.7833 9.59055C64.8544 9.59055 65.1045 9.77818 65.2935 9.97295C65.3931 10.0758 65.4918 10.1598 65.5126 10.1598C65.5516 10.1598 65.7122 10.3341 65.8072 10.4795C65.8364 10.5244 65.8925 10.603 65.9317 10.654C66.0724 10.8378 66.163 10.976 66.163 11.0068C66.163 11.0242 66.1939 11.0662 66.2314 11.1005C66.2692 11.1346 66.3104 11.2242 66.3233 11.2996C66.336 11.3751 66.3692 11.4556 66.397 11.4786C66.4248 11.5019 66.4476 11.5405 66.4476 11.5644C66.4476 11.5885 66.4876 11.6834 66.5366 11.7755C66.5854 11.8676 66.6255 11.9888 66.6255 12.0452C66.6255 12.1013 66.6479 12.1699 66.6755 12.1973C66.7028 12.2248 66.7369 12.3579 66.751 12.4935C66.7653 12.6289 66.7976 12.7957 66.8229 12.8643C66.8866 13.0364 66.9182 13.7952 66.8727 14.0561C66.8523 14.1737 66.8206 14.4059 66.8025 14.5723C66.7622 14.9424 66.74 15.0477 66.6757 15.1707C66.6483 15.2231 66.6259 15.316 66.6257 15.3769C66.6257 15.4379 66.5934 15.5285 66.5544 15.5782C66.5152 15.628 66.4832 15.6864 66.4832 15.7078C66.4832 15.7292 66.4205 15.8707 66.3437 16.0224C66.267 16.1739 66.1949 16.3219 66.1837 16.3513C66.1722 16.3807 66.1069 16.4769 66.0385 16.5649C65.9701 16.6529 65.8995 16.7584 65.8815 16.7992C65.8111 16.9597 64.9724 17.7392 64.8701 17.7392C64.8435 17.7392 64.7929 17.771 64.7574 17.8102C64.7221 17.8494 64.6735 17.8815 64.6494 17.8815C64.6255 17.8815 64.5873 17.9039 64.5647 17.9313C64.5418 17.9587 64.4812 17.9917 64.4295 18.0046C64.3781 18.0177 64.2966 18.0593 64.2484 18.0971C64.2 18.1351 64.1329 18.1661 64.0986 18.1661C64.0645 18.1661 64.0181 18.1883 63.9957 18.2155C63.973 18.2426 63.8477 18.2761 63.7156 18.29C63.5831 18.3039 63.4489 18.3396 63.4148 18.37C63.3697 18.4103 63.2215 18.4331 62.8632 18.455C62.5939 18.4715 62.3307 18.5027 62.2787 18.5242C62.2154 18.5505 62.1625 18.552 62.1186 18.5285C62.0825 18.5093 61.8528 18.4823 61.6082 18.4685C61.3636 18.4546 61.1315 18.4237 61.0923 18.3996C61.0531 18.3758 60.9171 18.3345 60.7897 18.3082C60.5823 18.2651 60.2943 18.1538 60.1493 18.0607C60.1199 18.042 59.9999 17.9848 59.8825 17.934C59.7651 17.8831 59.645 17.826 59.6156 17.8072C59.5862 17.7882 59.4915 17.7292 59.4049 17.6759C59.1085 17.4932 58.1922 16.5046 58.1922 16.3672C58.1922 16.3438 58.1708 16.3066 58.1447 16.285C58.1185 16.2633 58.0777 16.1812 58.0542 16.1026C58.0307 16.0242 57.9975 15.9599 57.9801 15.9599C57.963 15.9599 57.9385 15.9126 57.9258 15.8548C57.9131 15.797 57.8741 15.7129 57.8392 15.668C57.8043 15.6231 57.7649 15.5032 57.7518 15.4016C57.7386 15.2999 57.7055 15.1637 57.6786 15.099C57.5638 14.8246 57.4677 13.7605 57.5167 13.3089C57.5922 12.6144 57.6259 12.3916 57.6667 12.3181C57.69 12.2759 57.7053 12.2279 57.7006 12.2116C57.6832 12.1513 57.9172 11.5076 57.9989 11.391C58.0271 11.351 58.0499 11.2922 58.0499 11.2606C58.0499 11.2287 58.082 11.1738 58.1212 11.1383C58.1602 11.103 58.1922 11.0429 58.1922 11.0052C58.1922 10.9674 58.2859 10.8378 58.4007 10.7171C58.5152 10.5967 58.6516 10.4258 58.7036 10.3378C58.7563 10.2486 58.8935 10.1067 59.0131 10.0175C59.1312 9.92946 59.3135 9.78491 59.4182 9.69611C59.5229 9.6075 59.6462 9.51685 59.6922 9.4948C60.1889 9.25553 60.4 9.16427 60.5051 9.14406C60.5737 9.13079 60.6538 9.09955 60.6832 9.07444C60.7124 9.04933 60.8406 9.01748 60.9678 9.0038C61.095 8.99012 61.2336 8.95684 61.2761 8.9301C61.3998 8.8515 62.6754 8.84251 62.8246 8.91928ZM44.6705 9.58708C44.5825 9.6024 44.4653 9.63343 44.4102 9.65609C44.3551 9.67875 44.2342 9.69733 44.1413 9.69733C44.048 9.69733 43.9417 9.7206 43.9035 9.74939C43.8655 9.77818 43.7943 9.80227 43.7455 9.80309C43.6965 9.8037 43.5603 9.85208 43.4429 9.91068C43.3255 9.96927 43.2024 10.0172 43.1693 10.0175C43.1362 10.0175 43.0999 10.0324 43.0887 10.0505C43.0774 10.0687 43.0084 10.103 42.9353 10.1269C42.8623 10.1506 42.7606 10.2039 42.7095 10.2451C42.6211 10.3161 42.3659 10.4815 42.1949 10.5781C42.0795 10.6434 41.5393 11.1893 41.5393 11.2408C41.5393 11.2649 41.4827 11.3392 41.4137 11.4061C41.3447 11.4731 41.27 11.5885 41.2478 11.6626C41.2257 11.7369 41.1861 11.8153 41.1598 11.8371C41.1336 11.8588 41.1122 11.9057 41.1122 11.9413C41.1122 11.9768 41.0948 12.0166 41.0736 12.0299C40.9897 12.0817 40.8262 12.5601 40.7198 13.0647C40.6635 13.3326 40.6228 14.1233 40.6524 14.3765C40.6684 14.5135 40.6824 14.7072 40.6835 14.8068C40.6843 14.9067 40.7078 15.0347 40.7351 15.0916C40.7627 15.1484 40.7966 15.267 40.8102 15.355C40.8239 15.443 40.8558 15.5392 40.8809 15.5686C40.906 15.598 40.9383 15.6939 40.9528 15.7821C40.9703 15.8891 41.0418 16.033 41.1692 16.2172C41.2739 16.3685 41.3699 16.533 41.3823 16.5828C41.3948 16.6326 41.4338 16.6888 41.4689 16.7076C41.5042 16.7266 41.5677 16.7984 41.6106 16.8674C41.709 17.0269 42.0795 17.3827 42.2271 17.4599C42.2892 17.4924 42.378 17.5597 42.4249 17.6098C42.4717 17.66 42.6156 17.7502 42.7451 17.8104C42.8745 17.8705 43.0044 17.9348 43.0338 17.9529C43.1391 18.0183 43.3996 18.1306 43.4457 18.1306C43.4888 18.1306 43.5685 18.1581 43.7632 18.2408C44.068 18.37 45.5361 18.5262 45.7748 18.4546C45.8473 18.4329 46.0408 18.399 46.205 18.3792C46.6858 18.3213 46.7838 18.3019 46.8579 18.2504C46.8965 18.2237 46.9657 18.2016 47.0114 18.2016C47.0822 18.2016 47.4075 18.0609 47.5884 17.9519C47.6178 17.9344 47.7458 17.8703 47.873 17.8096C48.2143 17.6471 48.5451 17.3997 48.797 17.1183C48.8662 17.0412 49.0069 16.8876 49.1096 16.7772C49.2122 16.6665 49.2964 16.5493 49.2964 16.5163C49.2964 16.4834 49.3605 16.387 49.4387 16.3021C49.5171 16.2172 49.5812 16.128 49.5812 16.1039C49.5812 16.0796 49.612 16.0165 49.65 15.9632C49.6877 15.9101 49.7292 15.8195 49.7418 15.7621C49.7547 15.7045 49.7878 15.5971 49.8153 15.5232C49.8431 15.4495 49.8658 15.3534 49.866 15.3099C49.8662 15.2662 49.8884 15.1878 49.9156 15.1357C50.0644 14.8505 50.0946 13.2087 49.954 13.0421C49.9293 13.0127 49.8974 12.8859 49.8831 12.7603C49.869 12.6346 49.8272 12.4825 49.7904 12.4223C49.7537 12.362 49.7237 12.2936 49.7235 12.2706C49.7233 12.2124 49.6649 12.0842 49.5806 11.9568C49.5416 11.8982 49.484 11.7945 49.4525 11.7263C49.3641 11.535 49.1924 11.2977 49.0046 11.1079C48.9107 11.0127 48.8337 10.9219 48.8337 10.906C48.8337 10.89 48.7847 10.8396 48.7247 10.7941C48.6647 10.7486 48.5487 10.6546 48.4667 10.5852C48.3848 10.5156 48.2715 10.4276 48.2147 10.3894C48.158 10.3513 48.07 10.2918 48.0189 10.2573C47.9681 10.2228 47.897 10.1845 47.8611 10.1722C47.8252 10.16 47.659 10.0801 47.4918 9.99479C47.3244 9.90945 47.1451 9.83963 47.0935 9.83963C47.0416 9.83963 46.9673 9.81717 46.9281 9.78981C46.8891 9.76246 46.7613 9.72857 46.6445 9.71489C46.5275 9.70101 46.3971 9.66773 46.3546 9.64098C46.2636 9.58382 44.9335 9.54115 44.6705 9.58708ZM45.8093 9.6616C45.8581 9.67814 46.058 9.70141 46.2534 9.71346C46.4622 9.72632 46.6398 9.75592 46.6845 9.78512C46.7262 9.81248 46.8591 9.84616 46.98 9.85984C47.1078 9.87434 47.2348 9.91231 47.284 9.9511C47.3303 9.98765 47.3918 10.0175 47.4201 10.0175C47.4487 10.0175 47.5128 10.0495 47.5624 10.0887C47.6122 10.1279 47.6706 10.1598 47.6925 10.1598C47.7719 10.1598 48.1316 10.3872 48.3111 10.5509C48.4128 10.6434 48.5314 10.7304 48.5749 10.7441C48.6183 10.7577 48.6898 10.82 48.7335 10.8825C48.7772 10.945 48.8715 11.0521 48.943 11.1205C49.0887 11.26 49.4031 11.7022 49.4031 11.7675C49.4031 11.7908 49.4323 11.8428 49.4681 11.8833C49.5338 11.9576 49.7235 12.3624 49.7235 12.4284C49.7235 12.448 49.7455 12.4825 49.7727 12.5049C49.8 12.5276 49.8331 12.6525 49.8468 12.785C49.8605 12.9167 49.8952 13.0609 49.9237 13.1058C49.985 13.2011 50.0032 14.6598 49.9448 14.7736C49.9262 14.8097 49.9005 14.9081 49.8876 14.9922C49.8747 15.0765 49.8339 15.2366 49.797 15.3481C49.7598 15.4595 49.7188 15.6139 49.7057 15.6913C49.6926 15.7684 49.6512 15.8707 49.6136 15.9183C49.5763 15.9661 49.5454 16.0261 49.5454 16.0516C49.5454 16.0771 49.4813 16.1719 49.4031 16.2623C49.3249 16.3527 49.2608 16.4505 49.2608 16.4795C49.2608 16.5257 48.9764 16.8599 48.6978 17.1414C48.4658 17.3754 48.1894 17.5936 48.012 17.6826C47.9062 17.7357 47.7956 17.7937 47.7664 17.8115C47.737 17.829 47.6059 17.8919 47.475 17.9511C47.3444 18.0101 47.2278 18.0738 47.2164 18.0924C47.2047 18.1112 47.1196 18.1371 47.0271 18.1502C46.9346 18.1632 46.8236 18.1959 46.7805 18.2231C46.7368 18.2504 46.5163 18.2882 46.2823 18.3084C46.0514 18.3282 45.8203 18.3617 45.7687 18.3825C45.6241 18.4411 44.392 18.3502 44.1013 18.2596C44.0131 18.232 43.8771 18.1983 43.7987 18.1847C43.7205 18.1708 43.6164 18.1383 43.5674 18.1124C43.5186 18.0865 43.4027 18.0458 43.3102 18.0222C43.2175 17.9987 43.1244 17.9583 43.1032 17.9327C43.0817 17.907 43.0176 17.8758 42.9605 17.8631C42.9033 17.8507 42.8474 17.8253 42.8359 17.807C42.8247 17.7886 42.7563 17.749 42.6844 17.719C42.6124 17.689 42.4972 17.6116 42.4288 17.5473C42.3602 17.4828 42.2471 17.3958 42.1773 17.3543C41.9611 17.2255 41.5293 16.7325 41.3768 16.4403C41.3257 16.3425 41.2569 16.2304 41.2241 16.1912C41.0775 16.0169 41.0144 15.8946 40.9913 15.7403C40.9777 15.649 40.9452 15.5567 40.9193 15.5353C40.8933 15.5136 40.8615 15.4124 40.8486 15.3099C40.8356 15.2076 40.7988 15.0437 40.7668 14.9459C40.7047 14.756 40.6777 13.6525 40.729 13.3979C40.7429 13.3293 40.7772 13.1421 40.8056 12.9814C40.8337 12.821 40.867 12.673 40.8797 12.6527C40.8921 12.6325 40.9258 12.5258 40.9546 12.4157C40.9832 12.3057 41.0385 12.1752 41.0773 12.1258C41.1161 12.0766 41.1477 12.0082 41.1477 11.9741C41.1477 11.94 41.1702 11.8935 41.1977 11.8708C41.2251 11.848 41.2584 11.7865 41.2714 11.734C41.2847 11.6818 41.3582 11.5705 41.4352 11.4872C41.5119 11.4039 41.5748 11.3137 41.5748 11.2869C41.5748 11.1906 42.2765 10.5601 42.4999 10.4558C42.5293 10.4419 42.6414 10.3698 42.749 10.2953C42.8567 10.2208 42.9607 10.1598 42.9803 10.1598C43.0403 10.1593 43.4021 10.0032 43.4954 9.93722C43.5437 9.90312 43.6293 9.87515 43.6856 9.87515C43.7418 9.87515 43.8302 9.85168 43.8822 9.82309C44.1456 9.67814 45.5167 9.5632 45.8093 9.6616ZM7.51727 13.2861C7.47072 13.3224 7.37252 13.3716 7.29902 13.3955C7.22573 13.4194 7.1657 13.4522 7.1657 13.4684C7.1657 13.5072 6.95276 13.5805 6.91234 13.5555C6.89519 13.5447 6.8809 13.5517 6.8809 13.5709C6.8809 13.59 6.92725 13.616 6.984 13.6284C7.04076 13.6409 7.11528 13.6821 7.14958 13.7201C7.18408 13.7583 7.23961 13.7893 7.27309 13.7893C7.30658 13.7893 7.37456 13.8214 7.42438 13.8606C7.47419 13.8996 7.54075 13.9316 7.57239 13.9316C7.60383 13.9316 7.69917 13.9957 7.78411 14.0741C7.86904 14.1523 7.97193 14.2164 8.01276 14.2164C8.0536 14.2164 8.13036 14.2564 8.18303 14.3052C8.23591 14.3542 8.30635 14.3942 8.33962 14.3942C8.3729 14.3942 8.43701 14.4263 8.48213 14.4655C8.52725 14.5045 8.58217 14.5365 8.60401 14.5365C8.62565 14.5365 8.70466 14.578 8.77918 14.6288C8.8537 14.6794 8.92311 14.7125 8.93332 14.7023C8.96354 14.6721 8.90923 14.6078 8.8537 14.6078C8.82553 14.6078 8.80245 14.5929 8.80245 14.5745C8.80245 14.5563 8.76632 14.53 8.72242 14.5161C8.67833 14.5022 8.59278 14.453 8.53215 14.4069C8.47172 14.3608 8.39801 14.3232 8.36862 14.3232C8.33942 14.3232 8.28634 14.2911 8.25081 14.2519C8.21549 14.2127 8.15874 14.1807 8.12505 14.1807C8.09116 14.1807 7.99949 14.1168 7.9213 14.0384C7.8429 13.9602 7.74552 13.8961 7.70489 13.8961C7.66406 13.8961 7.61424 13.8655 7.59424 13.8279C7.57402 13.7903 7.50951 13.7489 7.45051 13.736C7.28534 13.6997 7.39661 13.3632 7.60771 13.2607C7.64834 13.2409 7.66365 13.2238 7.64181 13.2224C7.61996 13.2211 7.56402 13.2497 7.51727 13.2861ZM4.77724 14.6533C4.85114 14.7272 4.81705 14.7674 4.59431 14.8707C4.19558 15.0553 3.94794 15.1843 3.79237 15.2883C3.70805 15.3446 3.62067 15.3905 3.59821 15.3905C3.57555 15.3905 3.46816 15.4526 3.35975 15.5283C3.25114 15.6039 3.12252 15.678 3.07352 15.6925C3.02452 15.7072 2.96062 15.7394 2.93122 15.7641C2.90182 15.7889 2.83772 15.8209 2.78892 15.8354C2.73992 15.8499 2.67582 15.8817 2.64642 15.9067C2.61722 15.9314 2.55312 15.9634 2.50412 15.9777C2.45533 15.9922 2.39061 16.0255 2.36059 16.0516C2.33058 16.0779 2.21054 16.1502 2.09376 16.2123C1.97698 16.2743 1.87347 16.3358 1.86367 16.3489C1.85387 16.3619 1.6395 16.4748 1.38736 16.5998C1.13523 16.7245 0.886969 16.8615 0.835724 16.9038C0.784684 16.9462 0.702816 16.9909 0.653817 17.0028C0.450066 17.053 0.115039 17.4572 0.0409293 17.7429C-0.0772793 18.1977 0.0566501 18.5148 0.493757 18.8145C0.704041 18.9586 1.54334 18.9511 1.54334 18.8051C1.54334 18.7908 1.77568 18.663 2.05966 18.5207C2.34345 18.3784 2.59354 18.2404 2.61539 18.2141C2.63723 18.1877 2.67255 18.1661 2.69378 18.1661C2.71502 18.1661 2.8222 18.103 2.93204 18.026C3.04167 17.9491 3.17479 17.8752 3.22746 17.8621C3.28013 17.8488 3.33097 17.8253 3.34056 17.81C3.34995 17.7947 3.48184 17.7225 3.63374 17.6496C3.78543 17.5767 3.99142 17.463 4.09126 17.3968C4.1913 17.3307 4.28909 17.2766 4.30889 17.2766C4.3287 17.2766 4.38321 17.2463 4.43016 17.2094C4.57328 17.0969 5.37257 16.6716 5.44096 16.6716C5.45239 16.6716 5.53528 16.6155 5.62491 16.5471C5.71474 16.4785 5.80661 16.4226 5.82927 16.4226C5.85193 16.4226 5.96953 16.358 6.0906 16.2794C6.21166 16.2008 6.34702 16.12 6.39132 16.1C6.60569 16.003 6.64305 15.9697 6.57813 15.9334C6.53546 15.9095 6.52444 15.876 6.54118 15.8227C6.57119 15.7284 6.61998 15.7243 6.64836 15.8138C6.66817 15.8762 6.76351 15.9228 6.87396 15.9238C6.97767 15.925 6.80046 15.7194 6.66225 15.6778C6.58671 15.6553 6.52505 15.6247 6.52505 15.61C6.52505 15.5953 6.43583 15.5381 6.32681 15.483C6.21759 15.4277 6.11979 15.3605 6.10958 15.3336C6.09917 15.3066 6.03017 15.2682 5.95626 15.2484C5.88235 15.2284 5.80192 15.1882 5.77762 15.159C5.75332 15.1298 5.70616 15.1059 5.67268 15.1059C5.6394 15.1059 5.5412 15.042 5.45484 14.964C5.36828 14.8861 5.26334 14.8219 5.22169 14.8217C5.18004 14.8215 5.1241 14.7897 5.09716 14.7511C5.07041 14.7125 4.97833 14.6658 4.89279 14.6472C4.77805 14.6223 4.74784 14.6239 4.77724 14.6533Z" fill="#D932AC"/>
<path fill-rule="evenodd" clip-rule="evenodd" d="M4.54631 12.6741C4.4722 12.824 4.37665 12.9883 4.33378 13.0391C4.29091 13.0902 4.23088 13.1878 4.20026 13.256C4.16984 13.3244 4.0798 13.4981 4.00059 13.6422C3.84972 13.9162 3.82113 14.0385 3.9079 14.0385C3.93628 14.0385 4.00202 14.0781 4.05408 14.1263C4.10635 14.1747 4.18188 14.2247 4.2221 14.2374C4.26212 14.2502 4.33419 14.307 4.38196 14.3637C4.47383 14.473 4.75659 14.6206 4.95075 14.6608C5.01465 14.6741 5.08325 14.7155 5.10326 14.7531C5.12347 14.7906 5.17533 14.8217 5.21861 14.8219C5.26189 14.8221 5.36826 14.8862 5.45482 14.9642C5.54118 15.0422 5.63938 15.1061 5.67266 15.1061C5.70614 15.1061 5.7533 15.13 5.7776 15.1591C5.80189 15.1883 5.88233 15.2286 5.95624 15.2486C6.03014 15.2684 6.09915 15.3068 6.10956 15.3337C6.11977 15.3607 6.21756 15.4278 6.32679 15.4831C6.43581 15.5383 6.52503 15.5954 6.52503 15.6101C6.52503 15.6248 6.5875 15.6557 6.66386 15.6785C6.74511 15.7028 6.82127 15.7551 6.84781 15.8045C6.87373 15.8531 6.92539 15.8888 6.96928 15.8888C7.01113 15.8888 7.09178 15.9372 7.14833 15.9962C7.20488 16.0552 7.31207 16.1199 7.38638 16.1399C7.46069 16.1599 7.52133 16.1904 7.52133 16.2077C7.52133 16.2251 7.58054 16.2588 7.65301 16.2826C7.72529 16.3065 7.83982 16.3798 7.9074 16.4456C7.97518 16.5113 8.05357 16.565 8.08175 16.565C8.11013 16.565 8.17566 16.595 8.22752 16.6315C8.27958 16.6681 8.36206 16.7104 8.41106 16.7253C8.45985 16.7404 8.53825 16.7824 8.5848 16.819C8.63155 16.8553 8.69239 16.8853 8.71995 16.8853C8.78569 16.8853 8.94943 17.0625 8.92309 17.1052C8.89226 17.155 8.30898 17.5311 8.12626 17.6189C8.03826 17.6613 7.91107 17.7377 7.8437 17.7887C7.77633 17.8398 7.69609 17.8816 7.66567 17.8816C7.63505 17.8816 7.53092 17.938 7.43395 18.0068C7.33697 18.0758 7.16895 18.1728 7.06054 18.2224C6.95193 18.272 6.8231 18.3504 6.7741 18.3967C6.67958 18.4861 6.14631 18.7699 6.07139 18.7707C6.04689 18.7709 6.02688 18.7875 6.02688 18.8075C6.02688 18.8275 5.98278 18.8632 5.92909 18.8869C5.87519 18.9106 5.75718 18.9825 5.66674 19.0464C5.5765 19.1103 5.49035 19.1625 5.47544 19.1625C5.4242 19.1625 4.79926 19.5314 4.77089 19.5782C4.75517 19.6041 4.71842 19.6251 4.68902 19.6251C4.52242 19.6251 4.23129 20.1743 4.25804 20.4383C4.32235 21.0722 4.60695 21.3256 5.29007 21.3574L5.63877 21.3736L5.82925 21.247C5.93399 21.1776 6.06301 21.1043 6.11589 21.0841C6.16877 21.0641 6.29617 20.9918 6.39886 20.9234C6.50175 20.8552 6.60098 20.7995 6.61976 20.7995C6.63834 20.7995 6.70877 20.758 6.77614 20.7076C6.84352 20.6572 7.00644 20.562 7.13812 20.4965C7.2698 20.4308 7.43783 20.3287 7.51173 20.2697C7.58564 20.2105 7.71794 20.1284 7.80613 20.0874C7.89413 20.0461 8.04623 19.9665 8.14422 19.9102C8.24201 19.8538 8.34614 19.7956 8.37533 19.7809C8.40473 19.7662 8.50089 19.7044 8.58888 19.6437C8.67708 19.5831 8.8451 19.4859 8.96249 19.4281C9.18013 19.3207 9.3847 19.198 9.47596 19.1201C9.50393 19.0962 9.6401 19.0223 9.77852 18.9555C9.91674 18.8887 10.1072 18.7793 10.2013 18.7121C10.2957 18.645 10.557 18.4949 10.7822 18.3787C11.0074 18.2626 11.2325 18.1352 11.2828 18.0956C11.333 18.0562 11.3895 18.0239 11.4087 18.0239C11.4592 18.0239 11.7913 17.8036 11.7913 17.7701C11.7913 17.7544 11.8371 17.6891 11.893 17.6248C12.052 17.4417 12.1055 16.911 11.9875 16.685C11.9581 16.6287 11.934 16.564 11.934 16.5411C11.9338 16.5182 11.8818 16.4674 11.8181 16.428C11.7546 16.3886 11.6554 16.3073 11.598 16.2473C11.5404 16.1871 11.4665 16.1379 11.4336 16.1379C11.401 16.1379 11.3334 16.106 11.2836 16.0668C11.2338 16.0276 11.1825 15.9956 11.1697 15.9956C11.0974 15.9956 10.685 15.7647 10.6013 15.6773C10.547 15.6208 10.4616 15.5642 10.4114 15.5515C10.3614 15.5389 10.281 15.4976 10.2326 15.4597C10.1844 15.4217 10.1244 15.3907 10.0991 15.3907C10.0739 15.3907 10.0058 15.3506 9.94757 15.3019C9.88938 15.2529 9.81098 15.2128 9.77321 15.2128C9.73524 15.2128 9.66664 15.1724 9.6203 15.1232C9.53598 15.0336 9.14848 14.8215 9.06907 14.8215C9.046 14.8215 8.98046 14.781 8.9237 14.7318C8.86674 14.6826 8.74813 14.6073 8.66013 14.5646C8.57194 14.522 8.47884 14.4662 8.45291 14.4407C8.42698 14.4152 8.37737 14.3944 8.34246 14.3944C8.30755 14.3944 8.23589 14.3543 8.18301 14.3053C8.13034 14.2566 8.05357 14.2165 8.01274 14.2165C7.97191 14.2165 7.86901 14.1524 7.78408 14.0742C7.69915 13.9958 7.60381 13.9317 7.57237 13.9317C7.54072 13.9317 7.47417 13.8997 7.42435 13.8607C7.37454 13.8215 7.30655 13.7894 7.27307 13.7894C7.23959 13.7894 7.18406 13.7584 7.14955 13.7202C7.11525 13.6823 7.04074 13.641 6.98398 13.6286C6.92722 13.6161 6.88088 13.5918 6.88088 13.5747C6.88088 13.5169 6.68979 13.3652 6.58954 13.3431C6.53503 13.3313 6.48154 13.307 6.47072 13.2897C6.4599 13.2721 6.38355 13.2276 6.30127 13.1906C6.21879 13.1539 6.12181 13.0902 6.08547 13.0494C6.04893 13.0083 5.91296 12.9256 5.78291 12.8656C5.65286 12.8056 5.48728 12.7245 5.41501 12.6857C5.34253 12.647 5.25454 12.6145 5.21922 12.6137C5.1839 12.6131 5.09958 12.5649 5.03201 12.5071C4.80845 12.316 4.70576 12.3513 4.54631 12.6741Z" fill="#F7A60F"/>
</svg>
